<mxfile host="Electron" modified="2023-12-09T11:48:57.165Z" agent="Mozilla/5.0 (Windows NT 10.0; Win64; x64) AppleWebKit/537.36 (KHTML, like Gecko) draw.io/22.1.2 Chrome/114.0.5735.289 Electron/25.9.4 Safari/537.36" etag="BzQP-mUn4mgZn7IRnN7G" version="22.1.2" type="device">
  <diagram name="Page-1" id="dUoX0ZYo80mVeTgBWVGF">
    <mxGraphModel dx="1356" dy="868" grid="1" gridSize="10" guides="1" tooltips="1" connect="1" arrows="1" fold="1" page="1" pageScale="1" pageWidth="1169" pageHeight="827" math="0" shadow="0">
      <root>
        <mxCell id="0" />
        <mxCell id="1" parent="0" />
        <mxCell id="t7QxfzS9N0kHJtA_tGLN-25" value="" style="rounded=1;whiteSpace=wrap;html=1;fillColor=#f5f5f5;fontColor=#333333;strokeColor=#666666;dashed=1;dashPattern=8 8;" parent="1" vertex="1">
          <mxGeometry x="20" y="70" width="1110" height="580" as="geometry" />
        </mxCell>
        <mxCell id="t7QxfzS9N0kHJtA_tGLN-1" value="Data incubator" style="verticalLabelPosition=bottom;verticalAlign=top;html=1;shape=mxgraph.basic.rect;fillColor2=none;strokeWidth=1;size=20;indent=67.5;fillColor=#fff2cc;strokeColor=#d6b656;" parent="1" vertex="1">
          <mxGeometry x="160" y="280" width="150" height="80" as="geometry" />
        </mxCell>
        <mxCell id="t7QxfzS9N0kHJtA_tGLN-2" value="Raw data" style="verticalLabelPosition=bottom;verticalAlign=top;html=1;strokeWidth=2;shape=mxgraph.arrows2.arrow;dy=0.6;dx=40;notch=0;fillColor=#d5e8d4;strokeColor=#82b366;" parent="1" vertex="1">
          <mxGeometry x="50" y="285" width="100" height="70" as="geometry" />
        </mxCell>
        <mxCell id="t7QxfzS9N0kHJtA_tGLN-3" value="Traning Data&lt;br&gt;Validation Data" style="verticalLabelPosition=bottom;verticalAlign=top;html=1;strokeWidth=2;shape=mxgraph.arrows2.arrow;dy=0.6;dx=40;notch=0;fillColor=#d5e8d4;strokeColor=#82b366;" parent="1" vertex="1">
          <mxGeometry x="320" y="290" width="100" height="70" as="geometry" />
        </mxCell>
        <mxCell id="t7QxfzS9N0kHJtA_tGLN-4" value="Trainer" style="verticalLabelPosition=bottom;verticalAlign=top;html=1;shape=mxgraph.basic.rect;fillColor2=none;strokeWidth=1;size=20;indent=67.5;fillColor=#fff2cc;strokeColor=#d6b656;" parent="1" vertex="1">
          <mxGeometry x="430" y="285" width="150" height="80" as="geometry" />
        </mxCell>
        <mxCell id="t7QxfzS9N0kHJtA_tGLN-6" value="AI Model" style="verticalLabelPosition=bottom;verticalAlign=top;html=1;strokeWidth=2;shape=mxgraph.arrows2.arrow;dy=0.6;dx=40;notch=0;fillColor=#d5e8d4;strokeColor=#82b366;" parent="1" vertex="1">
          <mxGeometry x="600" y="295" width="100" height="70" as="geometry" />
        </mxCell>
        <mxCell id="t7QxfzS9N0kHJtA_tGLN-7" value="Auditor" style="verticalLabelPosition=bottom;verticalAlign=top;html=1;shape=mxgraph.basic.rect;fillColor2=none;strokeWidth=1;size=20;indent=67.5;fillColor=#fff2cc;strokeColor=#d6b656;" parent="1" vertex="1">
          <mxGeometry x="720" y="290" width="150" height="80" as="geometry" />
        </mxCell>
        <mxCell id="t7QxfzS9N0kHJtA_tGLN-8" value="Validation result" style="verticalLabelPosition=bottom;verticalAlign=top;html=1;strokeWidth=2;shape=mxgraph.arrows2.arrow;dy=0.6;dx=40;notch=0;fillColor=#d5e8d4;strokeColor=#82b366;" parent="1" vertex="1">
          <mxGeometry x="880" y="300" width="100" height="70" as="geometry" />
        </mxCell>
        <mxCell id="t7QxfzS9N0kHJtA_tGLN-14" style="edgeStyle=orthogonalEdgeStyle;rounded=0;orthogonalLoop=1;jettySize=auto;html=1;exitX=0.5;exitY=1;exitDx=0;exitDy=0;exitPerimeter=0;" parent="1" source="t7QxfzS9N0kHJtA_tGLN-9" edge="1">
          <mxGeometry relative="1" as="geometry">
            <mxPoint x="1040" y="490" as="targetPoint" />
          </mxGeometry>
        </mxCell>
        <mxCell id="t7QxfzS9N0kHJtA_tGLN-15" value="Yes" style="edgeLabel;html=1;align=center;verticalAlign=middle;resizable=0;points=[];" parent="t7QxfzS9N0kHJtA_tGLN-14" vertex="1" connectable="0">
          <mxGeometry x="-0.2417" y="1" relative="1" as="geometry">
            <mxPoint as="offset" />
          </mxGeometry>
        </mxCell>
        <mxCell id="t7QxfzS9N0kHJtA_tGLN-9" value="Result OK?" style="strokeWidth=2;html=1;shape=mxgraph.flowchart.decision;whiteSpace=wrap;" parent="1" vertex="1">
          <mxGeometry x="990" y="285" width="100" height="100" as="geometry" />
        </mxCell>
        <mxCell id="t7QxfzS9N0kHJtA_tGLN-17" value="Use Model!" style="strokeWidth=2;html=1;shape=mxgraph.flowchart.terminator;whiteSpace=wrap;fillColor=#dae8fc;strokeColor=#6c8ebf;" parent="1" vertex="1">
          <mxGeometry x="990" y="490" width="100" height="60" as="geometry" />
        </mxCell>
        <mxCell id="t7QxfzS9N0kHJtA_tGLN-21" value="" style="shape=cylinder3;whiteSpace=wrap;html=1;boundedLbl=1;backgroundOutline=1;size=15;" parent="1" vertex="1">
          <mxGeometry x="205" y="287.5" width="48.75" height="65" as="geometry" />
        </mxCell>
        <mxCell id="t7QxfzS9N0kHJtA_tGLN-23" value="" style="shape=image;verticalLabelPosition=bottom;labelBackgroundColor=default;verticalAlign=top;aspect=fixed;imageAspect=0;image=data:image/png,iVBORw0KGgoAAAANSUhEUgAAA1wAAAOECAYAAAC1iDCGAACAAElEQVR42uzdZZhW1drAcR2GobtLuhvp7k5RQqRFQpQOKQklpEEEpJFuKUkJBaSkkZLuhgHOx/Vy7xfPQZj9MMAzz957rf+H33V5naMws+97xb33inf+85//KAAAAACA/73DQwAAAAAACi4AAAAAoOACAAAAAFBwAQAAAAAFFwAAAABQcAEAAAAAKLgAAAAAgIILAAAAACi4AAAAAAAUXAAAAABAwQUAAAAAFFwAAAAAAAouAAAAAKDgAgAAAAAKLgAAAAAABRcAAAAAUHABAAAAAAUXAAAAAICCCwAAAAAouAAAAACAggsAAAAAQMEFAAAAABRcAAAAAEDBBQAAAACg4AIAAAAACi4AAAAAoOACAAAAAFBwAQAAAAAFFwAAAABQcAEAAAAAKLgAAAAAgIILAAAAACi4AAAAAAAUXAAAAABAwQUAAAAAFFwAAAAAAAouAAAAAKDgAgAAAAAKLgAAAAAABRcAAAAAUHABAAAAAAUXAAAAAICCS2ePHj1SJ0+eVGvXrlXff/+96tKli2rZsqWqV6+eqlatmipVqpQqXbq09c8fffSRatasmerevbuaOHGiWrdunfXfPnnyhGcJAAAQQA8ePFD79u1Ts2fPVoMGDVKdO3dWzZs3V7Vr11ZlypRRFStWVLVq1VINGzZULVq0sOZ4MteTOZ/M32QOyHOk4IKfXb16Va1fv14NHz5cNW3aVOXNm1dFjRpVvfPOO28lXrx4qnLlyqp///5WESYdAM8bAADAf/7++2/1448/qgYNGqisWbOqyJEjv9X8LSQkROXMmVN9/PHHasiQIWr16tXq4sWLPGsKLoT3q9WhQ4fUnDlzVI8ePVTVqlVVypQp37qwCq84ceKo+vXrq7lz56pbt24REwAAgDewe/du1aFDB5U9e/aAzeOSJEmiKlSooDp16qRmzJhhfUV7+PAh8aDgMteNGzfU5s2b1ejRo63Pxfnz51fRo0cPWKN8lRgxYlhLFPfu3Uu8AAAAXuHy5ctqxIgRKleuXK6Zz0WJEkXlzp1bNW7cWH333Xfql19+sX5O4kXBpRXZJ3Xs2DG1YMEC1atXL1WjRg2VJk0a9e6777qmMb5K8eLF1bJly4gnAADAC06dOqU+++wzq7jxytwuefLk1raSrl27WnvJDhw4wN4wCi5vkGV427ZtU+PHj7caXuHChVWsWLE80/heRX4f2UtGrAEAgOnkAItPP/3U2lOlwzwvWrRoKl++fNZBa/KlbsOGDeratWvEmoLLua9W0sgWL16s+vXrp+rUqaMyZMiggoKCtCmufJHTc44ePUouAAAA49y/f1/16dPHU1+03kaqVKmsU6979uxp7fM/fPiwevz4MblAweU/d+/eVb///rt1nHq7du2s5XVyuIQJDexVb0HkKFM2YwIAAFPIV5/MmTMbPw+Uvf4FChSw9vvLeQRyLoGcT0COUHC90pUrV9Ty5cvVwIEDrbursmTJoiJFimR8o/JFjiXdv38/+QMAALR17949a7uIl/bgB5o8GzmnQM4r6N27t3V+wblz58gf0wuu8+fPq1mzZlkNKFu2bDSit3jLMXXqVBoTAADQjhx+Jif9Med7M+nTp1dNmjRRkydPVqdPn6bgMoFs/pswYYIqVaqUMXuuAkU2Wcq6ZjpnAACgg4ULF7KVxM9fwYoUKaJGjRqlLly4QMGlGzldTz5x6nKSjFuVLl2aNbwAAMDzhg4dyuqnCCTbduSi5lWrVlkH0lFweZScoCJvJmRTH4kdOHny5FEXL16kswYAAJ4jk/9u3boxpwsguSx6xowZKjQ0lILLS+SiXjn0giR2hhyTz0ZJAADgtZf1crcWczlnpE2bVi1atIiCy+2OHz9u3RVA0jovR44c6urVq3TgAADAE9q0acMczgXKlSunDhw4QMHlNvIJUi6hixo1KonqIgULFlS3bt2iEwcAAK4m94syd3OPyJEjW0s7dbnz1fMF16lTp1ThwoVJTpeqWrUqN5IDAADXkuttOCDDnfLnz28dzU/B5fBxnXHjxiUhXU6+PtKhAwAAt9myZYv1NYX5mnvFjh3bOlSDgosTZOCD3HkmB5nQsQMAALeQ+1lTpUrFXM0jOnbs6Nkj5D1XcMl+LbmxmsTzFvkSefbsWTp4AADgCjVr1mSO5jH16tVT9+/fp+CKSHfu3FFVqlQh4TyqevXqdPAAAMBxY8aMYW7mUaVKlVLXr1+n4IoI9+7dUyVLliTRPG7WrFl09AAAwDGy4iZWrFjMyzxMDsyTDzEUXH5eRlijRg0STAMJEiSw1kzT4QMAACc0bNiQOZkGKlWq5Jlj411fcMnmuKZNm5JYGuncuTMdPgAACLhff/2VI+A1Ur9+fU9cP+T6gqtXr14klGaiRYumzpw5Q8cPAAAC+hI/d+7czMU0IyeXU3C9hZUrV1pHipNM+mnevDmdPwAACJilS5cyB9OQfLF0+/VDri24/v77b5UwYUISSVNyyaDEmAEAAAAEQtGiRZmDaSp+/Pjq1KlTFFyve0gGjUJ/PXv2ZAAAAAAB2bvF3EtvBQsWdO0hGq4suIYNG0biGEC+YHrx8joAAOAtchcocy/9ffPNNxRc4SGHKXA3gjmmTZvGQAAAACLMpUuXVHBwMPMuA8SIEUOdPHmSgutVateuTcIYdocCgwEAAIgoY8aMYc5lELm7l4LLh1WrVpEoBh6ewUXIAACAwzLgL3IiJQWXjfz585MkBpo8eTIDAgAA8Ds5uY6Ljs2TK1cu6941Cq4X/PzzzySIoWQjK4MCAADwtwkTJjDX4isXBdc/ChcuTHIYKl68eK56CwEAAPTQqFEj5lqGKlCgAAXX89atW0diGO7PP/9kYAAAAH6VJk0a5lkGW7NmDQXXP+rXr09SGE4++TMwAAAAf5Grhphjma1OnToUXOL69esqWrRoJIXhmjRpwuAAAAD8Zs6cOcyxDBclShRXnIbteMH1/fffkxCwTpNhcAAAAP7StWtX5lhQY8eOpeAqUqQIyQAVEhKiHjx4wAABAAD8omLFisyxoAoWLGh2wSWf+IKCgkgGWP744w8GCAAA4BdJkiRhfgXrHrYLFy6YW3DNnz+fRAAXIAMAAL86f/48cyv816xZs8wtuFq1akUS4L8+//xzBgkAAPDWfv75Z+ZW+K/mzZubW3ClS5eOJMB/FS9enEECAAC8tYEDBzK3wn+lTZvWzILr6tWrJAD+JU6cOOrJkycMFAAA4K3UrVuXuRX+xcl9XI4VXJs3byb4eMnx48cZKAAAwFvJmDEj8yr8y/r1680ruMaPH0/w8RI5SIWBAgAAvKlbt25xCjZeMm7cOPMKLjkggeDjRT179mSwAAAAb2zLli3MqfCS9u3bm1dwVapUieDjJVWrVmWwAAAAb2z06NHMqfASqT2MK7gKFChA8PGSFClSMFgAAIA31qJFC+ZUeEn+/PnNK7gyZcpE8BGmy5cvM2AAAIA3ki9fPuZTeIkcpGJcwZUoUSKCjzCtXr2aAQMAALy20NBQFTVqVOZTeEnixInNK7giR45M8BGmwYMHM2gAAIDXtm/fPuZSCJMU4sYVXCEhIQQfYapfvz6DBgAAeG3Tp09nLoUwycce4wquOHHiEHyEKWvWrAwaAADgtXXo0IG5FMIktYdxBVeyZMkIPsIUKVIkdffuXQYOAADwWkqXLs1cCmGS2sO4gitdunQEH7Z+++03Bg4AAPBa4sePzzwKYcqQIYN5BVeePHkIPmyNHz+egQMAAITbqVOnmEPBVt68ec0ruGrXrk3wYatVq1YMHgAAINwWL17MHAq26tSpY17B1blzZ4IPWwULFmTwAAAA4da3b1/mULDVtWtX8wouWTJG8GEnevTo6tGjRwwgAAAgXGrWrMkcCrZ++OEH8wquNWvWEHz4dPDgQQYQAAAQLqlTp2b+BFvr1683r+A6e/YswYdPs2fPZgABAACvdP36deZO8OnixYvmFVwiUaJEJABsyT4/BhEAAPAq8vWCuRPceAeX4wVX+fLlSQLYkvxgEAEAAK8yfPhw5k6wVaVKFXMLLk4qhC/yBZRBBAAAvMonn3zC3Am2evToYW7BNWvWLJIAPslePwYSAADgS86cOZk3wda8efPMLbjkFDqSAL4sX76cgQQAANi6f/++ihw5MvMm2Dp69Ki5BZfcsyT3LZEIsDNgwAAGEwAAYGvXrl3MmWArduzY6smTJ+YWXKJgwYIkA2zVqVOHwQQAANiaNGkScybYKlasmOM56njB1apVK5IBttKnT89gAgAAbLVr1445E2xJfhhfcI0fP55kgK13331X3bx5kwEFAACESb5gMGeCHfkCanzB9dtvv5EM8Gnz5s0MKAAA4CWyN0f26DBfgh3Z42d8wXX37l0VKVIkEgK2Ro0axaACAABeIqfPMVeCHTm9Uk6xNL7gElmzZiUpYKtZs2YMKgAA4CVyvxJzJdiR+9nckKeuKLjq169PUsBWnjx5GFQAAMBLevTowVwJtj755BMKrn8MHjyYpICtKFGiqIcPHzKwAACAf6lSpQpzJdgaPnw4Bdc/Vq9eTVLApz179jCwAAD8LjQ0VB08eFBt3bpV/fzzz2r27Nlq4sSJau7cuWrdunVq79696vbt2zwrl0qePDnzJNhav349Bdc/Ll++TFLAp6lTpzKwAAD84siRI2rMmDGqRo0aKk6cOK8cg4KCglTatGlV9erVrVU5u3fvtk7H41k66+LFi8yR4PNqoevXr1NwPS9FihQkB2x98cUXDC4uc+nSJfXHH3+oVatWqRkzZqiRI0eqb7/9VvXt21f17t1bDR06VE2YMEH99NNP1hfKR48e8dwAOEquGSlfvrxfxqUkSZKojh07Wl/HeLbOkPGHORLspE6d2jW56pqCq2rVqiQHbJUqVYrBxQVvhAcNGmS9EX6TFyQxY8a04ti9e3e1f/9+nimAgJHlgqVLl46wMUqKOLlXlGcdWPKSjzkS7NSsWZOC60U9e/YkOWArbty4LN9wgNxdIfeg5c2b1+8xLVGiBJdaA4hQjx8/Vv379w/YfZ+1atVS586d49kHSL169ZgjwZasuKHgesH8+fNJDvh04sQJBpgATlJ++OEHlTJlygiPa926ddWVK1d47gD8SvqVSpUqBXysih8/vnXgBjGIeFmyZGF+BFuLFy+m4HrR8ePHSQ74tGjRIgaYALhw4YIqV65cQGP73nvvqR07dvD8AfiFfGWSQy6cHLNkLyuxiDh37twJ2JdLeNOpU6couF4ky8Vix45NgoDBy0Fy8pZsBHcivtGiRXPN8a0AvEtOJcuZM6crxq1WrVqxHD6CbN++nbkRfH5pdlO+vuOmH6Z48eIkCWzJYQ0MMhHnwIEDKmHChI7GWA7WkM3txAPAm7h37561P9RNY5fsUSc2/jdu3DjmRrBVpkwZCi47n3/+OUkCW6lSpWKQiSByF55bLo9MlCiROn/+PHEB8NpatGjBXZKG+PTTT5kbwVaHDh0ouOxMnjyZJIFPV69eZaCJAHJ0qpviLHvI5OAOYgMgvDZu3GhddOrGsUu2TJw8eZI4+VGBAgWYF8HW9OnTKbjsyCWqJAl8+eWXXxho/EwuLXZjrOUiZeIDILxXWGTOnNnV41fZsmWJlZ88evRIRY8enXkRbO3bt4+Cy86DBw9USEgIiQJbw4YNY7Dxc5tLkyaNK2OdIEECdePGDeIE4JXkvh0vjGErV64kXn7ac8ycCHaiRo2qQkNDKbh8yZUrF8kCWx9//DGDjR+NHTvW1fFmszmAV7l7966KFy+eJ8YwuUSeUwvf3syZM5kTwVa+fPlcl7OuK7gaN25MssBWjhw5GGz8KFu2bK6Od4wYMdS1a9eIFQBbP/74o6fGsc2bNxO3t9SpUyfmRLAlh+dQcL3C8OHDSRbYCg4Oto79ZcB5e7/99psnYi59AvECYCd//vyeGseaNGlC3N6SHKzEnAh2xowZQ8H1Khs2bCBZ4NOOHTsYcPygffv2noh31qxZiReAMMll7V4bw+S+QTnkg/i9OafvjIS7bdmyhYLrVeSGeLce6wp3+OGHHxhw/CBLliyeifmmTZuIGYCXDBkyxJPj2Pr164nfG/r777+ZC8FWUFCQunXrFgVXeKRNm5akga02bdow6Bg2YMml6MQNwItq1KjhyXGse/fuxO8NLVu2jLkQbGXMmNGVeevKgqtWrVokDWwVKVKEQectzZ0711Mxz5AhA3ED8C9y2p9Xl5aVLl2aGL6hr7/+mrkQbH344YcUXOHVr18/kgY+178/fvyYgcewAevYsWPEDsB/HTp0yLPjWJIkSYjhG6pduzZzIdgaNGgQBVd4LVmyhKSBT0eOHGHgeQsNGzb0XMxHjRpF7AD814IFCzw9jnHlxZtJly4d8yDY+vnnnym4wuvMmTMkDXyaM2cOA89beP/99z0X8w8++IDYAfivoUOHenoc27dvH3F8TTdu3OBgNfh0/vx5Cq7XkSBBAhIHtrp168bg8xbixInjuZinT5+e2EWQ0NBQdefOHeuU2EuXLlmHqpw4cUIdPnzYmhT+8ccfavv27dZpkevWrVNr165Vq1evVitXrlQrVqxQS5cuVYsXL1aLFi2yvjrMmzfPeikye/ZsNWPGDDVt2jQ1ZcoUNXnyZDVx4kQ1YcIENX78eDV27Fjry+WIESOs+9aGDRtmnTr37bffWstC+vfvby0x79Onj6Vv377Wclj53wcOHGj9O/LvDh482Jp8y38vf44YOXKk9WePHj3a+nvGjRunvv/+e+vvlp9h0qRJ1oW58nPJzzd9+nQ1c+ZMNWvWLPXTTz9ZP7/8HgsXLrR+P/ldf/nlF+sZbNu2Te3cuVPt2bNHHThwQB09elSdPHlSnT171np+8hxv376tHjx4YO0zIsciRtu2bT09jsk1OMTx9Uj7Yw4ELy7VdW3BVbZsWZIHtipVqsTg84bk7Y8XYy5vNW/evKlVkSO/z4ULF6ziRibuMonfvHmzVcxI8SIFixQpUjRIISLFh7xskDvUPv30U+sC1QYNGqi6detap7VVrlzZuhC0RIkSqlChQipfvnwqZ86c1hUAsgwnZcqU1oAUL148ay9klChReFscAJEiRVJRo0ZVsWLFsp594sSJVYoUKVSaNGmsE7WyZcumcuXKZX15Lly4sBW/ChUqWDH96KOPrDi3bt1affnll6pHjx5W0SkFplzuKYWjFImSL7KURibxcqm5FIOy9FpWjFy+fNkqAB89eqRVX1alShVP54UU84xJr0deztCnwE7FihUpuF5Xx44dSR7YSpo0KYPPG9q6datn4y7FSCCf1d27d9XFixetAzvkgtWNGzdaRxJLISRfSuSLSu/evVWnTp2st+3NmjVT9erVsybK5cuXV8WKFbOKHrm8WSbXUuzEjh1bRY4cmXYMR4SEhFhfuKXoS506tVWM586d2yr05EWn5O7HH39sFXidO3e2inz5Yij3H8qXP8l/aQe7du2yCrpz585Zd9448SXPS3cJhkWKZMak19O0aVPaMTy5+sm1BZcsQyF54It8GWAAen2rVq3ybMx9HZxx7949aymXrPGXJXHyxUje9MvyN5nYyLIx+VIky9DkK0G7du1U48aNrROvpDiSL0LypSFVqlQqbty4Kjg4mHYGvMYXaPlqKi/D5BqHPHnyqOLFi1tfoeSY5ubNm6svvvhCffXVV9YyUFnmKW1SvtDJCwxZmiovg/7880+r/Upblq/Avo6EjxYtmqef2Zo1axiTXpO8HKC9wYv7+11bcO3fv5/kgSdPouFkr4i9j0uWWsnb+Bw5cqj33nvPWqLFFyNAz6WY8lVYvhAXLVpUVa9e3XpJ0qFDB+ulidd/P9kXyZgUfg8fPrS+0NI2YEf2HVNwvcH+Bq+/vYKZdy24nbxVJn8AwFnyYpkxKfxkWTd5A6/e0fqOmxtX/vz5SSLYcutt4m4nS3nIHwBwlpxsyZgUfnKiKHkDO7Lyxc356+qCq2XLliQRbGXKlIlB6A3IEdrkDwA46+rVq4xJr0FOZyVvYEcO+qHg4k08IkBQUJB11DED0f/Wt586dcraeD5//nzrgAjZ5yAn58lx4bKJXTa0y74I8gcAnFWwYEFVs2ZN1apVK+u0U7krTo6K37Jlizp+/Djj2wvkugTyBnbkJFUKLgOPr0ZgSI6YMNDIiV2y3l9OGJR7meQeHhmkZRN53rx5rY3lUoCSEwCg174UOSyoTJky1oEhvXr1siaWMhbISaymFGVyKqVcZ0BOwM6OHTsouN6UdCRMIuGLXPypy1epefPmWffdyJ1OcpltyZIlrYE2evToxBoAECY5qVUuzq5WrZq1rOqbb75RM2fOVJs2bbL2ifk6Xt8r/vrrL2INW3KNi1wNQ8H1FjJnzkwywVaLFi1cm7vXrl1T+/btUytXrrTumvnnq5QMirK8Ty4e5YUCACAiyTLyFClSWHcNymFTHTt2VCNGjLDuJ9y5c6e6dOmSIxdXvw5ZakksYSd79uyuf2ng+oLro48+Iplg6/3333c8R+XySr5KAQC8Sq7hyZgxo7V0sUmTJv9auij7yZweZ+XnIU6w8/HHH1NwvS35NE4ywdcg4fRyiaFDhxILAICWatWq5fhcUPYrEwvYGTZsGAXX25LlWCQTfHH68si1a9cSBwCAlvr16+f4XDBlypTEArZ++eUXCq63deHCBZIJPk2fPt3RHL1y5QpxAABoacmSJYyxcDUv3Gn3jhdOp5G7g0go2JENwLx9AwDA/06fPs0qErhWqlSpPHHSpicKLrm0laSCHdnk63SOysmDxAIAoJP48eM7Pr6yTxq+yP4+Ci4/6d69O0kFVw8InKAEAOCFpv81bNiQWMBW7969Kbj8Ze7cuSQVXL3kYcGCBcQBAKCVDh06OD4HlDuWiAXsyH1yFFx+cuTIEZIKrt7U+9dffxEHAACHUvnRvXv3VHBwMLGArRMnTlBw+cvjx49VrFixSCzY6tu3r6M5+uTJExUnThxiAQDQxr59+xwdW3///XfiAFsy75L5FwWXHxUtWpTkgq2aNWs6nqMlSpQgFgAALUSNGlWFhoY6Oq5OmDCBWMBWyZIllVfqGM8UXG3btiW5YCtNmjSO52j79u2JBQBAC/ny5XN8XG3dujWxgC2Zd1Fw+dnEiRNJLth699131fXr1x3N0R9//JFYAAC00KJFC8fnfoULFyYWsDVlyhQKLn/buXMnyQWfNmzY4GiO7t69mzgAALQwevRox/fvx4gRg1jA1p49eyi4/O3+/fsqcuTIJBhsDR8+3NEcffDggQoJCSEWAADP27Jli6Nj6uHDh4kDbEWJEkU9fPiQgisi5MyZkySDrcaNGzueo7ly5SIWAABPCwoKUrdu3XJ0PP3pp5+IBWzlyZNHeamG8VTB1ahRI5IMtqTYcTpHmzRpQiwAAJ6WMWNGx8fTrl27EgvYatq0KQVXRPnuu+9IMtiSJaeyrM/JHB0xYgSxAAB4Wt26dR2f81WsWJFYwNbIkSMpuCLKunXrSDL49Mcffziaoxs3biQOAABPGzhwoONzviRJkhAL2Nq8eTMFV0S5du0aSQafJk+e7GiOytH0ckQ9sQAAeNWKFSscHUvPnz9PHGBL5lk3btyg4IpI7733HskGW59//rnjOZo2bVpiAU8txZWjl+PEiaMSJUqkUqRIYV0knilTJpUjRw5rY3LBggVV8eLFVZkyZVSlSpVUjRo1VM2aNVXt2rXVBx98oD788ENVr1491aBBA/Xxxx+rTz75xNrP2KxZM+sun08//VR99tlnqk2bNqpdu3bWZZVffPGF6tChg+rUqZPq0qWL6tatm+rRo4f66quvVK9evVSfPn1Uv379VP/+/a237d98840aPHiw5dtvv1WDBg1SAwYMsP5/+ffk3+/du7f13/fs2VN1797d2gPSuXNn6++Qv0v+Tvm7pZ9o27atdamq/Fzy88nP2bx5c2tfgBzAI3uG5XeR30l+N/kd5fetVq2atdRJnoU8E3k2efPmtQ51ypw5s0qXLp1KlSqVSpo0qYofP76KHTu2ihYtmooUKRL5Bs84d+6co+OoFHzEAXbSp0+vvFa/eK7gkoGeZIOdYsWKOZ6jtWrVIhZ4peDgYGsynjhxYqvAyZo1q8qXL5+VwxUqVLD6uvr161tFixQpUjhIQSGFh6xd/+GHH9SMGTPU3Llz1aJFi9Ty5cvVmjVrrPvotm7dat1dKHeUHDx4UB0/flydPn1aXbhwwVopIKePyX7HJ0+eeG7Q8jJ53nLFiTx/iYPE48yZM+qvv/6yjsDet2+ftSz6t99+s5bLyDL6VatWqcWLF1sntsnl6mPGjFFDhw5VX3/9tVVUShHZqlUrq8iV4rdq1apWMSgXxspBQlI4SwGYMGFCFTNmTOv0OdoffJE+yem2Ii9ZiAXs1KlTh4IroslbTJINdmQC6/QkUt62Ewt9vv7EixfP+rIuX3tkEivFkExs5UuIfC2RLyryxWXUqFFq4sSJaubMmVYBtHLlSrVp0ya1Y8cO9eeff1qTaplgyzKI0NBQChA4emegLH+WrxhSjO/fv9/KU9mDKnkr+St5PGHCBDVs2DBr3JUvhC1btrS+9klRV6JECevrZ4YMGay9NvKVlOXUepA+zukclUM7iAXsyMoGCq4IJgMByQZfjh075miOLlmyhDg4SC6fTpAggfXVSJZ5FS1a1FoGJwO4LBmTLwKyZG3IkCHq+++/V7NmzVLLli2zJpvydUHy5+LFi+revXtMzoHX8OjRI6uQk692Bw4csL7UrV271hq3p02bZn2dky+0snRUlnXKslN5Uy0TfHmZIS815OWGvDijeHOOLPF1OpfkWHpiATsyZlNwRbCTJ0+SbPBp/vz5juaoTDaIQ2CPL5bCSeK+e/duJr6AJsXblStX1NGjR9Xvv/9uvSChvwuM2bNnOxp7WXLL0lf4cvbsWQquQJAlPiQc7MiGeadzVL6wEIvAkCWcTFABvU2dOpX+LkBk36eTsd6yZQtxgC053MmLfZgnC67SpUuTdLAl+wucztGyZcsSiwCRgyWYkAJ6Y/92YMhePPm66GSsR48eTSxgq3z58hRcgfLll1+SdLCVPHlyx3O0Y8eOxCJAZOM+E1JAb3IKI/1dxJNrDpyOtey1JRawIyf2UnAFiGy+Jengy6VLlxzNUTmu26nfXe5TkiPGy5UrZ90nJBug5RQ9OUZ8wYIFav369VoNaPJGluPNAb3JnWc69FdFihSxDhSRI/9lr9Tw4cOt++Kkr5bDfXLnzq2SJUvm2L1tci+d07GW6zGYx8COHHRFwRUge/fuJeng0+rVqx3NUTlmOSLubZJLaQsUKGDd9SV3M8nlr/IC4pdffrHu8ZHNxuH5+aQA0ynecscUk1JAXylTptSir5K+Ozy/r1wdIf3ar7/+ahVmcuG39PlyP5981Y+ofcLjx493NM7ye0eNGpV5DFy7x9CogosGiVeRwcnpHI0WLdpr3R+WJUsWa++XLJ2RC01lHbscpywndMmJPP5cVz9u3DgKbACeuTdMl1PrWrRo4bfncvfuXetFm1x4PnnyZNW3b19r9YLscZHxRC66ft2fT47ydzLWcvk3cxjYiR49uuN7DI0quETevHlJPrj6IIX333/fWhYiy0Pkn+XNZNu2bdXAgQOtE7fkfhp5U3Pz5s2A/2xyqalO8R45ciQTU0BTR44c4Y6rN3T16lXruoylS5da96DJ8sUGDRqoYsWKqdSpU1uXu//zs8l4JUUcW0bAHkMKLjZVIlzk7Z7TOSoXgMqXLje2Hxl8dYp3mzZtmJgCmlq1apU2fZXcJ+amZ/v48WNrBcW2bdtccZlshw4dmMPAVqtWrSi4ODYUbiJv6u7cucNkxcbGjRu1ineZMmWIK6Ap2VekS18lByoRU679gTf3GBpZcMlGUpIPvmzfvp0BzIYsMeEqAABeIMvwdOmrZCk5MbUXL1485i9w7R5DIwsuOY1Nl0204E1IoB0/fly7eDuxFw5AxKtbt642/ZScYEtMw3bq1CnmLvC5csnpPYZGFlwiQ4YMJCG0XOsb0a5cuaJdvHfs2EFsAQ3JoUO69FPS9xLTsC1evJi5C2zJ/aJezu93eOsFTrMxz8OHD7WL9/Tp04ktoKGIunMq0EJCQrik3Qc51p65C9x8+rSxBZccr00SQsf7GgJBt7vsevToQVwBzchSYV36KLm8mZjak6tTmLvArferGl1wrVixgiSETwcOHGAgs5EoUSKtYl27dm3iCmhmz5492vRRsjSSmNqTe8GYt8DO6tWrKbiccu7cOZIQPs2aNYuBzEb69Om1inW2bNmIK6CZRYsWadNHVatWjZjakHsrmbPAl8uXL1NwOSlx4sQkImx17tyZwcxGnjx5tIp1lChRWEIKaGbYsGHa9FEtWrQgpjbWr1/PnAW2UqRI4fkc93zBVbFiRZIRtsqXL89gZqNkyZLaxfvo0aPEFtBImzZttOmfvvrqK2JqY/jw4cxZYKtq1aoUXE7r2rUryQhbCRMmZDCzUb16de3ivWzZMmILaESnl6pjxowhpjY++eQT5iyw1bNnTwoup/30008kI3w6e/YsA1oYGjZsqF2shw4dSmwBjeh03+aCBQuIqY2cOXMyX4Gt+fPnU3A57dChQyQj+OrxBlq3bq1drNkjAehD9mRGjhxZm/5py5YtxDUM9+/f1yrO8L/jx49TcDnt8ePHKkaMGCQkbPXv359BzZDluMWLFye2gCZOnDjBpNEAu3btYq4CW7Fjx9biwvB3dGishQoVIilhq06dOgxqYdDx4nC5W4zYAnpYu3atVv3TnTt3iGsYJk2axFwF2r9I1aLg0nFpFPxH7ptiUHvZ6NGjtYz3tWvXiC+gge+//16rt/TENGzt2rVjrgJbn3/+OQWXW0yYMIGkhK13331X3bhxg4HtBdOmTdMy3tu2bSO+gAbkHkVd+qWMGTMSUxvFihVjrgJbkydPpuByi99//52khE+bNm1iYHvB4sWLtYz1lClTiC+gAVkOzrIovcneHPn6xzwFdv744w8KLre4d++eCg4OJjFha+TIkQxuL5AiVMdYd+vWjfgCGsidO7c2/VLdunWJaRjksnrmKLATEhKiHjx4QMHlJtmyZSM5Yatp06YMbi/Yv3+/lrGuWbMm8QU0oNOXD132ofjbvHnzmKPAVq5cubTJdW0KLh0vcYX/5MmTh8HtBefPn9cy1lmzZiW+gMddunRJq35JToUlri/r0aMHcxTYaty4MQWX2wwdOpTkhK0oUaKohw8fMsA9Rz7T67oEITQ0lBgDHiaH37DxX39VqlRhjgJbw4cPp+Divg54zZ49exjgXhAzZkwtY33kyBHiC3jYjBkztOqTVqxYQVzDkCxZMuYnsLVhwwYKLre5cuUKyQlOr3tN7733npaxXrp0KfEFPKxfv36ctKa5ixcvMjeBzyt9rl+/TsHlRilTpiRJYat9+/YMchqfAvY8WWJMfAHv+uSTT7Tqk86dO0dcX7Bq1SrmJrCVNm1arfJdq4KrevXqJClslSxZkkHuBWXLltUy1i1atCC+gIcVLVpUm/4oKChIPXr0iLi+4Ntvv2VuAlu1atWi4HKrXr16kaSwFSdOHOuSRQa6/5G7YXSMdbFixYgv4GFJkybVpj9KnDgxMQ1DvXr1mJvAliwrpuByqYULF5Kk8OnEiRMMdM/57LPPtIxzokSJiC/gUXfu3LH2b3CXkN6yZMnCvAS2lixZQsHlVn/99RdJCp+kKGegM+MOlGvXrhFjwIP27dunVV9UoUIF4hpGUR0pUiTmJbB15swZCi63kuVismyMRIUdWXbKYPc/w4YN0zbWW7duJcaABy1atEirvkgOACGuet+zBv9KkCCBdjn/jm6/UIkSJUhW2JKDVRjs/keOytc11j/++CMxBngR5LguXboQ1xeMGzeOOQlsyYFeFFwuJ0d/k6ywkypVKga758gaaV1j3bVrV2IMeFCbNm206ouGDx9OXF/w6aefMieBrY4dO1Jw8cYeXnf16lUGvGe2bNmibZxr1KhBjAEPqlixolZ90YIFC4jrCwoUKMB8BLZmzJhBweV2u3fvJlnh0y+//MKA98zBgwe1jXOmTJmIMeBBGTJk0Kov2rlzJ3F9jtxJFi1aNOYjsLV//34KLrd7+PChCgkJIWFhS/YHMOj9v0uXLmkb5+DgYHX//n3iDHhIaGioihw5slZ90eXLl4ntcw4cOMBcBLakGJd+gILLA3Lnzk3SwlbDhg0Z9J6b3Oh0382L9u7dS5wBDzly5IhWfVD06NGJ6wtmzpzJXAS28ufPr2Xea1lwNW3alKSFrezZszPoPUfnqxR++uknYgx4yNKlS7XqgzJnzkxcX9CpUyfmIrDVsmVLCi6vGDlyJEkLn0vN7t27x8D3TNq0abl3DQBHwnPpcUCUK1eOuQhsjR07loLLKzZt2kTSwqcdO3Yw8D2TL18+beNcp04dYgx4iLzd5m293hImTMg8BLa2bt1KweUVN27c0HpfCt7eDz/8wMD3TOXKlbWNc9asWYkx4CElS5bUqg/q378/cX3O33//zRwEtoKCgtTt27cpuLwkXbp0JC9stW7dmsHvmSZNmmgbZzntTE4uJc6ANyRNmlSrPmj69OnEVeM9euA6F+MLLllKRPLCTuHChRn8nunatavWsZYjiIkz4H43b97Urv/ZuHEjsX3O119/zRwEtj766CMKLho1dBIzZkz1+PFjBsCnhg8frnWs58+fT5wBD5ALgnXrf06ePElsn1O7dm3mILD1zTffUHB5zbJly0he+HT48GEGwKdmz56tdZz79etHnAHuZwq4SJEiaXmBK9s9EFFWrlxJwcXGTOhmzpw5DIBPrVu3jiUKABzXu3dvrfqeVKlSEVcONMNruHDhAgUXR49CN926dWMQfEr2OOkc55w5cxJnwAPk5YhOfU/RokWJK1f2IJzkwByd81/rgovL9eBLpUqVGASfunr1qtZxjhIlinr06BGxBlwuT548WvU9DRo0IK7PGTFiBHMP2JIraii4PKpz584kMWwlSZKEQfCpJ0+eqJCQEPbrAXC0H5LDjFhFwRUkMFP37t0puLxq1qxZJDF8On/+PAPhUylSpNA6zosWLSLOAPuuA2r8+PHE9jm5c+dm3gFbc+fOpeBibwp09fPPPzMQPpUvXz6t4zxgwADiDHB4T0CtWLGC2D4jF9DrvpICb+fIkSMUXF4l+zaiR49OIsPWoEGDGAyfqlKlitZxbtiwIXEGXGzcuHHa9Tt//vknsX1m9+7dzDlgK1asWNrfjfqO7o28QIECJDNsffjhhwyGTzVr1kzrOMtmfOIMuNcXX3yhXb9z69YtYvvMlClTmHPA6BM9tS+4WrVqRTLDVsaMGRkMn5LNqjrHWb506/72DOAru3vEjx+fuD6nffv2zDlgq23bthRcLFOAzoKCgngLachxvcePH2fiA7hU+vTptepv5IAI4vo/JUqUYM4BWxMnTqTg8rrt27eTzPBpy5Ytxg+Gc+bM0T7OS5cuZeIDuNCDBw9UcHCwVv1NjRo1iO1zR/7HiROH+QZs7dy5k4LL6+7cuaMiRYpEQsPWmDFjjB8QN2zYoH2cv/32WyY/ACcKB4QsoSO2/++vv/5irgFbkSNHVvfv36fg0kGWLFlIathq0aKF8QPiwYMHtY8zJxUC7iT35OnW3wwbNozYPrNw4ULmGrCVI0cOI9qBEQVXvXr1SGrYev/9940fEK9fv659nHPmzMnkB3Ah+fqsW38zf/58YvtMr169mGvAVqNGjSi46MxhgqhRo6rQ0FDjB8UoUaJoHWe5dFP2ijABAriWIqL9/vvvxPaZ6tWrM9eAre+++46CSxerV68mqeHTvn37jB8U06RJo32c9+zZwwQIcJlixYpp19dcvHiR2D6TMmVK5hmwtW7dOgouXVy6dImkhk/Tp083flAsXry49nGeNm0aEyDAZeLFi6dVPxMtWjTrZD5i+x915coV5hjw6dq1axRcOkmePDmJDVsdOnQwfmBs0KCB9nHu2LEjkyDARc6ePatdPyMHdRHb/7d27VrmGLD13nvvGdMWjCm4dLvFHv5VpkwZ4wfGLl26aB/n8uXLMwkCXGTVqlXa9TPcwfU/Q4cOZY4B2opJBVfPnj1JbtiKHz++8QPjqFGjtI9z4sSJmQQBLiLHp/MlXV9yHQdzDNjp06cPBZdu5IhWkhu+nD59mrtwDIjzhQsXmAgBLtGkSRPt+pgJEyYQ22eyZcvG/AK2ZN5BwaWZY8eOkdzwafHixUYPjDt37jQiznJqKRMhwB3kHkTd+pj169cT26fu3bungoODmV/A1smTJym4dCMnBsWOHZsEh62+ffsaPTjKMcYmxFn2FDAZApz3+PFjFSNGDO36GDkIhPj+x7qLjLkF7MjppCa1h3dM+mV1vOsD/lOzZk2jB0d5KaH75ccm3WoPuN3x48e1619ixozJkfDPyNJK5hawU6pUKQouXbVr144khy25+Nf0ATJdunTaxzlXrlxMhgD2jUaI3LlzE9tnWrduzdwCtr788ksKLl1NmjSJJIetd999V12/ft3oAbJEiRLaxzkkJEQ9fPiQCRHgsAEDBmjXv9StW5fYPlO4cGHmFrA1bdo0Ci5d/fHHHyQ52OzMEb5q7969TIgAh9WrV0+7vkWuoCG2+u7PA+MwBVc4PHjwQEWOHJlEh63hw4cbPUh27drViDhPnz6dSRHgsBw5cmjXt0ydOpXYPnXo0CHmFLAl+8VNW2nyjmmdgOzfINlh55NPPjF6kBw9erQRce7UqROTIsBBMtmS5b269S3btm0jvk/99NNPzClgK2/evMa1CeMKLplQk+zgQIWwyV1kJsS5QoUKTIoAB+3fv1/LvuXKlSvE16DVEngzzZs3p+DSnSwZI9lhR5ac3r9/39hBcteuXUbEOWnSpEyKAL6AcK9QBKlYsSJzCtiS1TQUXJrbsGEDyQ6f5HAVUwfJS5cuGRNn+V2ZGAHOkMMldOtTChYsSGyfSZw4MfMJ2Pr1118puHQnx37L8d8kPOzI9QGmDpJyYWfUqFGNiPOaNWuYGLnItWvXrP0vU6ZMUd26dbOO1y5fvrwqVKiQdbhC6tSpVfz48a19P0L+Wf43+f/k35F/V/4b+W/lz5A/S/5Mnq071ahRg0vVNXX+/HnmErAVFBSkbt26RcFlArnglqSHHbkg2+TBMn369EbEediwYUyOHHLz5k21fPly1bFjR1W0aFGVMGHCCIuz/Nnyd8jfJX+n/N3EgH4mInz99dfE9qkVK1Ywl4CtDBkyGNkujCy4atasSdLDVrFixYweLMuVK8eJlPD7lRxr165VPXr0sL5GBQcHOxZ3+bvlZ5CfRX4m+dmIUWDduXPHesutW58i+9KI73/UwIEDmUvA1gcffEDBZYq+ffuS9LAVO3Zsa2mdqYPlp59+akScs2fPzuQogsmyvtatW1uHCbj5oAP5GTnOO3B27NjB/l+NydJe5hKwM2DAAAouUyxZsoSkh0/Hjh0zdrD89ttvjYhxpEiRjFxHHtFOnDhhLa3KmDGj53JCfmb52eV3IJYR58cff9SyT6E/+X9ebPsIHFlySsFliNOnT5P08GnevHnGDpbyu5sS540bNzJB8uNXC1murcOhRPI7yO8ivxOx9T/ZT6dbX5IsWTJi+5QUnTouF4X/nDt3joLLJHLCFYkPO7K/g7u49Dd06FAmSW9Jila5SFrnS7IpzP1Lx3wpUaIEsX1KjvtmDgE7cl2AqW3D2IKrTJkyJD9sValSxdhOQa5OMCXOH374IZOkNyTH6ssBMyYdpsNVAv6RPHly7fKjRYsWxPYpudCWOQR8vcCi4GJJA/BfMiEwedCMGzeuEXGWKyKYJL2eM2fOqDp16hjbN8jvLs+AXHgzV69e1TIvBg8eTHyfat68OXMI2OratSsFl2mmT59O8sOnS5cuGdsx5M2b15g4X758mYlSODx8+FANGTJExYwZ0/i+QZ6BPAt5JuTG61m1apWWObFo0SLi+1S+fPmYP4CrEyi4/mf//v0kP3xavXq1sR2D3JPBiUn4x6ZNm6xj9OkXXr5aQJ4NORJ+ciS0jrnw559/Gh/b0NBQFTVqVPoG2Dp06BAFl4kdQ7Ro0WgAsCXHo5vaPrp06WJMnOVePibC9v1kt27dtDh5MCJPNJRnJM+KnHm1WrVqaXnFxP37942P7b59++gTYCtGjBjq8ePHFFwmev/992kEsFWvXj1j28b3339vTJyrVq3KRNhmr1bRokXpC8JJnhV7u14tVapU2sU+Q4YMxPapadOm0RfAVqFChYxuH0YXXHKqEI0AdrJkyWL0CXQcU2uuZcuWcXXGG5BnJs+OHArbxYsXtYy7fLUjvv9RX375Jf0AbH322WcUXKYaM2YMjQA+l4ncuXPHyLZx/Phxo2J96tQpJkxPyXKPzp07s4TwLZcYyjM0eemMneXLl2sZ8969exPfp0qXLk0fAFuycoaCy1Bbt26lEcCn7du3G7t3Jzg42Jg4z5s3z/jJ0oMHD6x7yWj3/rvjTZ4pE/H/6devn5axnj9/PvF9Kl68eLR92Pr9998puEx1+/ZtFRQUREOArXHjxhnbPtKmTWtMnOWLhMl94c2bN1XZsmVp834mz1SeLZPx/1e9enUt43z48GHjYyurBGjzsCMvcO/evUvBZbJMmTLRGGCrVatWxrYNkybgpUqVMjbOct8cd+dEHHm2Jt/p97xkyZJpF1857fjRo0fGx3bx4sW0d9jKli2b8W3E+IKLJTTwpUCBAsa2jZYtWxoT59ixYxu55+bkyZMqY8aMtPUIJs9YnrXJY+3Zs2e1Lagppv9jXa9BW4edBg0aUHCZ/gAGDRpEY4Ct6NGjqydPnhjZNuQeMpNifeDAAeO+bFFsBbboMvlLl65fQJo0aULBpen9avCfoUOHUnCZ/gBWrlxJY4BPpt6tY9oSkalTpxq1Z4tlhM58DTF1T9dXX32lZUy/++47Cq6nsmfPThuHrbVr11Jwmf4ALly4QGOATxs2bDCybRw6dMioOLdt29aY0wg5IMPZgzRMPL2wUqVKWsZT7iw0fR4lq0BkNQjtG3auXLlCwcWbmf+opEmT0iBga+LEiUa2i4cPH6rIkSOzX0+ze7bYt+qOI+NN2zOYKFEiLWMpL21Nn0Ppuj8P/pEyZUq+AlNw6f3mDf7RrVs3Y9tG5syZjYlzlChRtP/yIMff06a5ioAjw/1DikjmUP9RGzdupE3DVrVq1WgnFFz/TybUNArYady4sbFto0aNGkbFeseOHdrGctmyZerdd9+lTbuExEJiYkI/smDBAi1jWKZMGSaST82dO5c2DVuyf5N2QsFlmTNnDo0CPpf/mNo2TPsiMnr0aC3jKAe/xI8fn/bsMhITEw7l0fWlZvv27ZlIPvXjjz/SnmFLXrjQTii4LEeOHKFRwJZ85TG1bUyePNmoWNetW1e7GIaGhqqiRYvSll1KYiMx0rkfKVeunJaxmzRpEhPJp+RFFW0Zdv766y/aCQXX/zaSx4oVi4aBMJUvX97YtrFlyxajYp04cWLt7l1jyTT7RJ0+wS5evHhaxu33339nIvnU4MGDaccIU5w4cYy9y5SCy0aRIkVoHAhTiRIljG0XV69eNS7eBw8e1CZ+mzZtYt+WR/ZzSax07EOOHz+uZcyCgoLUnTt3mD891a9fP9oxmD9RcIVPmzZtaBwIU+XKlY1uGwkTJjQq3uPHj9fmWH8uI/UOiZXEjD3S3pAhQwbmTs/I5c+0YbDPkYIrXH744QcaB8LUoEEDo9uGaft/6tevr0XchgwZQvv1GImZbv1Hp06dtIxVrVq1mDs9I3dV0n4RFjlQhTZCwfUvO3fupHEgTPL10+S20bx5c6PinTx5ci1OJYwZMybt12MkZrqdWliqVCktY9W7d2/mTs/MmzeP9osw7d69mzZCwfVv9+7dU8HBwTQQvKRnz55Gtw0Tv5QcO3bM0zGrU6cObdejJHY6nZAZI0YMLeM0f/585k7PrFq1iraLl4SEhKgHDx7QRii4XpYjRw4aCV4yduxYo9vFkiVLjIu5l497XrNmDe3W4ySGOvQdcpG4rjE6fPgw86ZnDhw4QLvFS3Lnzk37oOAK28cff0wjwUs2bNjAPXWGxbxRo0aejVexYsVotx4nMdSh7xg+fLiW8YkePbp69OgR86bnDuiJHDkybRf/0qRJE9oHBVfYhg0bRiPBSy5fvmx0u5BlQbI0wKSYv/fee56M1caNG2mzmpBYer3v0HVpa758+ZgzvSBTpky0W/zLiBEjaBsUXGH75ZdfaCT4l0SJEtE2nsqZM6dxsT958qTn4lShQgXarSYkll7vN5ImTaplbJo1a8a48IIaNWrQbvEvut4tSMHFJa+IAGXKlKFtPNWwYUPjYj916lT2y8BRElOv9hly8IyucRk3bhzjwgt69epFm8V/yWXuN27coG1QcNmTpUQ0Fvzj66+/pl08NXjwYONi37RpU0/FqGbNmrRZzUhMvdpnTJkyRdu47Nq1i3HhBbLXmTaLf6RLl452QcHFZ3GE3/bt22kXT/38888MGC524sQJ640ibVa/t8QSWy/2GS1atNAyJlGjRrUOiWBc+Dc5/lsOE6HdQtSuXZt2QcHlm1xmSGOBiBMnDidRPXP27Fkjc8Arl9DKl1jaLF/Z3SRLlixaxqNgwYKMCewhBauDKLje1qJFi2gs8PxynoiQIEEC43Jg5syZnohNxowZabOakth6ra+4cuWKtl9cP//8c8YDG0OHDqXNwrJ06VLaBAWXb3IyGY0F4qeffqJNPKd06dLG5UDLli1dH5dt27bRXjUnMfZSX7F48WJtYzF9+nTGAxuyIiAoKIg2C/X333/TJii4fHvy5ImKGzcuDYblhOrevXu0iee0b9/euDyQu2XcHpfWrVvTZjUnMfZSX/Hll19qG4tDhw4xHvhQtmxZ2qzhEiZMSFug4AqfcuXK0WgM16pVK9rCCyZNmmRkLpw/f97VG9XjxYtHm9WcxFhi7ZW+IleuXNq+iJOXsowH9qZNm0abNVylSpVoCxRc4dOnTx8aDacT0ha458kyZ84c18Zk7dq1tFdDSKy90E9cvnxZ2/1b8vWGscC327dvq1ixYtFmDda/f3/aAgVX+KxZs4ZGY7BChQrRDsJw9+5dFSlSJJZzuUiPHj1os4aQWHuhn5g3b562MejWrRtjQTh06tSJNmuw9evX0w4ouMLn1q1bKjg4mIZjKLlzinYQNtnTxD4u95CXA7RZXgS5yWeffaZtDBYuXMg4EA6yDDtatGi0WwNFjhxZ3blzh3ZAwRV+xYoVo/EYKH/+/OS/Dx988IGRefHXX3+5LhY3b97kxZBBJNYSc17KcPKaF7Rr1452a6BSpUqR/xRcr2fkyJE0HgMtW7aM/OeC3ZeMHTvWdbFYvnw5bdYwEnM39w9SkOj67JMlS8YY8BpOnz6tokSJQrtlrAQFl29nz57lPgnDlC9fntw3+H4dX2rUqOG6WHTs2JF2axiJuZv7h6lTp9IH4L+++uor2q1BZI/3hQsXyH0KLpYVwp68iTty5Ah5/wqnTp0yMj9ixozpumO5ixYtSts1jMTczf1D48aNOXkN/zpoKV26dLRdlhOCgsvct3X4t169epHz4ZQoUSIjc2TdunWuioNcLknbNYvbLxRNmTKlts9+9erV9P9vQA6hou2aYebMmeQ8BdebuX//vrGTS5NkzJhR3bt3j5wPJ7nU0MQ86dy5s2ticO3aNdquoST2buwXZIWArs9c7hVz63P3go8++oi2q7mkSZN66nJ2Ci7WICPAokaNqnbv3k2u0yZeKWfOnK6JwbZt22i/hpLYc9BUYGXIkIG+/y1cv35dpU2blvarsT59+pDrFFxvf3iGTMppUHqaMGECec7BGeF+yy39gRtiMGXKFNqvoST2fPkOrAYNGtD3v6WdO3dyaqGm5M41Dsug4PKLDh060Kg01LBhQ/L7DV9CmJozkydPdkUMunXrRhs2lMTejYcj6HzR7fDhw+n7/WDUqFG0YQ116dKF/Kbg8o8rV66oOHHi0LA0UqhQIW5DfwuyXtvEvJGLn93w/OvWrUs7NpTEnjvhAmvLli30+5xkiTDEixeP/Y0UXP41cOBAGpcmsmbNqq5evUpev4Vq1aoZmTuxYsWyDtNx+vnLnXG0Ze4LdIu2bdtq+7xDQkKsL3j0+/4RGhqqqlevTlvWxODBg8lrCi7/klPsMmfOTAPzuFSpUqkzZ86Q02+pb9++xubQihUrHH/+8oWW9mzu13m39Qc6H4hQpEgR+vwIWIJavHhx2rMGL6/d8AKSgktDsqwgKCiIhubhYuvw4cPkMkuI3sqnn37q+PPPkSMHbdpQEns39QWHDh1izxze6OTC999/nzbtUZEiRVLbt28nlym4Ik779u1pbB6dpPz999/ksJ9cvHjR6PtGHj9+7OjzT506Ne3aUBJ7N/UFcqCEzs9bLu6lz48Yt27dUpUrV6Zde5AcJkcOU3BFqNu3b6ts2bLR4DxEli7I2zTy179SpkxpbE5t3brV0WcfP3582rahJPZu6gfKlSun7bMODg5WN2/epL+P4D1dzZo1o2177AU2+xopuAJClqXFjh2bhucB0pHL/jvy1v9q1qzJMbgOkY38tG8zSezd9AJS57uVZMkbfX1g9O/f31qmRht3Nzmx++jRo+QsBVfgLFq0yLoIlQbo3tPkZs6cSa5GoAEDBhibX5kyZaLggvEF18KFC1k2Bb/ZuHGj0Ssn3E7mvEuXLiVXKbgCr1+/fjRCF8qTJ486cuQIORrBVq9ebXSeHTx4kCWFMHpJoVwer/OzXrx4MX19gMmVLSavnnAzuR6JHKXg4hANWJ+6ZQO3rAknNyPejRs3jD61c9CgQRyaAWMPzXjw4IHV5+r6nKVv40JX58gKleTJk9Pm+dpLwYX/9+TJE25Od8Fn7kaNGqnz58+TkwGWK1cuY/OuYMGCHAsPY4+Fl9P7dH7OOXPmpI93wR7B7t27a71P0AuaN29uzXXJSQouV5yy06RJExqmA4VWjRo11G+//UYeOqR169ZG59/Jkye5+BhGXnzcokULrZ9zu3bt6ONd4vjx49Yci72rgSft/NGjR+QhBZe7vnTJBYk00IgXOXJk64vWn3/+Se65YNmHybn4zTffOPLcy5cvT19gKIm90+1eJmCJEiXS+jnPmzePPt5lzp49qzp37qz1UlY3+eqrr8g7Ci73GjVqFEebRuBhGEOHDuUCYxeRLzwm52Tu3Lkdee5169alTzCUxN7pdr9hwwbtn/OFCxfo4128f/j7779XpUuXNnofcUTePzd27FhyjYLL/davX6+SJElCw/XDlyzZJ9O7d2916NAhcsulUqRIYXSeOpGbfE03l8Te6Tb/+eefa/2MM2fOTN/uEefOnbMOyypZsqSKFi0afcRbSpYsmXU8P7lFweUZcoCDdAA04PBLkCCBKlu2rOrVq5das2aNtWGWXHK/Dz/80Oi87dOnT8Cf+ZQpU+gzDCWxd3r5vO53JbVs2ZK+3YPu37+vfv31V+v48sqVK/Pi+zWVKVOGL7sUXN4k69xlCVyMGDFozC98rs6aNauqV6+edbT2ihUrrLXZ5Iw3jRw50uh8duJt+LZt2+hLDCWxd7K9yyFFuj/jGTNm0Ldr4uLFi9adkUOGDLHujZPTJ2X1DH3J/8SMGdP6SsjhGBRcnnfixAlVqVIlIxtyvHjxrC99sgRl0qRJaufOnerevXvkhUZ27dpl/IC1e/fugD5zuR+IiYKZnL4bSu7j0f0Znzlzhr5dY3KHnPTZ8rX4iy++sL7syAobE/uTqlWrqlOnTpEXFFx6WbRokbb358hBIZkyZbI2dPfv318tXbpUnT59mrgb8iVX3pCZPAnu0qVLwJ97woQJKUAMIzF3uq3LHg+dn3HatGnp1w0+BVFW3MjKm48++khlyZJF20PQ5EvfkiVLiDsFl74eP35sHaWdIUMGzzZUOZK1WLFiqm3btmrChAnWEpM7d+4QX4PJ3juTJ8KpU6cO+MWQRYsWpQgxjMTcyXYuS7N0f8aNGzemT8d/3b17V+3YsUNNnDjRuputRIkSnj6WXuaes2bNsuaixJeCy5ivAosXL1YVKlSwLlB1Y8OU41bTp0+vateurfr162d9oZPlkdw4jhfJSZKmT4a3bNkS0GfesWNHihDDSMydbOdy/6Huz3jy5Mn06XjlwTFyJYrM4WRuVKdOHauQcesR9TLHlLmm/Lzs06LgMtqRI0dU165dHf3qFStWLFW4cGH12WefqfHjx6utW7eqW7duER/w5jucmjdvHtBnvnz5cooQw0jMnWrjcmqsCUuHZSJNn443bSNyqI3MoWQuJXMqmVs5lcsZM2a0rpE4evQo8aHgwov27t2r+vbtq4oUKaKiRo0aIW86ZI16jRo1rK8SCxcuVMeOHeOrFd56oDH95CcZWAP5kuLmzZvWiZ8UIuac7ioxd6qNy1J4ThwFXv9rmMyxFixYYF15I3OvNGnSRMjKJpkzytxR5pD79u3j+VNw4XVO0pH9UXJcp9wLIifpSEMNzyQrSpQo1oZPOYGmffv2asyYMdb9FHJDO88W7CnSYzlSoUKFKEYMIbF2sn2bcNKujJX05QiE69evq82bN1tzM8k7matJwS9zt/C8fJG5oMwJZW4oc0SZK8qckWdLwQU/Cg0NVZcvX7b2U8lbjO3bt1ubOg8ePGgdZysNmQ2RCDR5e2f6pFjeLgbymffo0YNixBASa6fatlyGasLX1JUrV9KXw/GD1WQOJ3M5mdPJ3E7meDLXkzmfzP1kDsizouACYKgNGzYwMX5KBslAPfO1a9fyzA0hsXaqbcsbdN2fb7Ro0bgjEgAFFwB3u3//vooePbrxE+NOnToFdNmxXC5OQaL/BfJOLhfKmzev9s9YlkzSjwOg4ALgeuXKlTN+cpw4cWL18OHDgD3z1q1bU5RoTmLsVJvetWuXEc94xIgR9OEAKLgAuN+gQYOYID8ld9YF6pnLMcQ8c71JjJ1q07Ip34RnfOjQIfpwABRcANxPTkpigvyOqlatWkCfu9y3wnPXk8TWqfYsp9qacPeWnPhG/w2AgguAJ8gt9nHixDF+khwpUqSAXqD69ddfU5xoSmLrVHseO3asEc9YLqml/wZAwQXAM6pXr85EOcCHZ8hxwRFxkSacJTGV2DrVlnPmzGnEc168eDF9NwAKLgDeYcIR0uERN25cdfv27YA995o1a/LcNSMxdaodb9261YhnHBISom7dukXfDYCCC4B37N27l8nyM+PGjQvYc5cLMnnmepGYOtWOGzVqZMQzLlWqFP02AAouAN7y5MkTlSRJEibMT2XJksV6HoF69hUqVOC5a0Ji6VQbvnr1qnURsAnP+dtvv6XfBkDBBcB7GjduzKT5mVWrVgXsuW/cuJFnrgmJpVPt97vvvjPmOe/Zs4c+GwAFFwDvmTt3LpPmZypXrhzQZ1+sWDGeu8dJDJ1qu6GhodYx6SY852TJkgX0CzQACi4A8Jvr16+r4OBgJs/PTpo7fPhwwJ79mjVreO4eJzF0qu3Onj3bmOfctGlT+msAFFwAvKtEiRJMnp9p27ZtQJ99nTp1eO4eJbFzst3myZPHmGc9Z84c+moAFFwAvEs2ozOB/n8xYsRQly9fDtizP3PmjIoZMybP3mMkZhI7p9qsSV9H5Th4+RJPXw2AgguAZ+3bt49J9HO6d+8e0Oc/ZMgQnrvHSMycbLPly5c35llXqlSJfhoABRcA70uVKhUT6Wdix46trl27FrBn//DhQ5U9e3aevUdIrCRmTrXV3bt3G/W8f/jhB/poABRcALyvVatWTKaf07t374A+/02bNlmHdvDs3X+wisTKybZav359Y553pEiR1MWLF+mjAVBwAfC+JUuWMKF+Tty4cdWNGzcCGoNu3brx7F1OYuRkOz158qRRp4rKgT70zwAouABo4fbt2ypKlChMqp8zYMCAgMZA7lUqWrQoz96lJDYSIyfbaZs2bYx65iNGjKB/BkDBBUAfFSpUYGL9nAQJEqhbt24FNAZy8l38+PF5/i4jMXHyVMJ/vm7JiX0mLd88deoUfTMACi4A+hgzZgyT6xcMHjw44HFYtmwZ+7lcNvGXmDjdPps0aWLUc8+XLx/9MgAKLgB6OXfunAoKCmKS/ZzEiRNbyy0DHYvOnTvz/F1CYuF02zx48KB1gIRJz33gwIH0ywAouADop3DhwkyyX9C3b9+Ax+Hx48fqww8/5Pk7TGIgsXC6XdapU8e4Z3/o0CH6ZAAUXAD0wyW8L4sZM6b19S/QsXjw4IEqW7YsMXCIPHuJgdNtcteuXcYtMc2aNSv9MQAKLgB6On78OJPtMLRo0cKReNy8edPay0IMAr9/SJ69G9pkxYoVjXv+PXv2pD8GQMEFQF+5cuVi0h3GBaz79u1zJB6XLl1SGTNmJA4BIs9anrkb2uLGjRuNjIF81aMvBkDBBUBb/fr1Y+IdBvnS4FRM5Ehwiq7AFFvyrN3QDp88eaKKFCliXAxSp05NPwyAgguA3vbv38/k28aqVasci4t8dWF5YcQuI3TLly0xffp0I+Pw5Zdf0g8DoOACoD++poQtZ86c6tGjR47FRfYVcZBGxByQ4ZY9W+L69esqSZIkRsZi8+bN9MEAKLgA6K9r165MxG1MnDjR0djIyXkcGe/fo9/dcBrh89q3b29kLFKmTOmKY/gBUHABQITbsWMHk3EbCRIkUJcvX3Y0PjIplQt5TTsu3J/k2ckzdNsEf8+ePSo4ONjImMiLHvpfABRcAIyRIUMGJuY2GjVq5IoYLVu2TMWPH5+YvCZ5ZvLs3Nbm5KCMokWLGhsX2T9K3wuAgguAMfr06cPk3Ic1a9a4Ik5nzpwxepL+uuRZyTNzY5ubOnWqsXGR6yjodwFQcAEwytGjR5mg+5AuXTp19+5dV8QqNDRUdevWjSWGr1hCKM9InpUb25sclJE4cWJj4zN06FD6XQAUXADMU6BAASbrPnTp0sVV8dq0aZPKnj07sXmBPBN5Nm5uay1atDD6YvGzZ8/S5wKg4AJgnhEjRjBh90EON9i9e7erYvbw4UM1ZMgQFTNmTOPjI89AnoU8Eze3s6VLlxodp3LlytHfAqDgAmCmixcvGntiWnjlz5/f0bu5fO3tqlOnjrFxkd/drXu1nieXLZt659Y/ZO8a/S0ACi4AxqpYsSKF1SvIVxS3xk8O9yhWrJgxsZDf1S0HmoRHrVq1jG470aNHV7du3aKvBUDBBcBc06dPp6h6hZCQEOvuMjfHcePGjapChQraxkB+N/kdvdS2pkyZYnzbqV+/Pv0sAAouAGaTt88xYsSgsArHqYU3btxwfTylMKxZs6YWJxrK7yC/i9uL3bCcPHlSxY4d2/h2s2LFCvpZABRcANCgQQOKKs3e1p84cUJ9/fXXKmPGjJ57zvIzy88uv4MX29Pjx49VyZIljW8vcgy+W4/pB0DBBQABtW7dOgqqcJo0aZLn4rtt2zbVunVrFS9ePNc+V/nZ5GeUn9Xr7al///60lafat29P/wqAggsAxJMnT6wlc0wSX02WXx44cMCTcX7w4IFau3at6tGjhypUqJCjJ1TK3y0/g/ws8jPJz6ZDW5Ij4IOCgmgrT3lxKSgACi4AiDADBgxgkhhOOXPmVPfu3fN8zG/evKmWL1+uOnbsqIoWLaoSJkwYYc9M/mz5O+Tvkr9T/m7d2tChQ4dUnDhxaCNPZcuWjX4VAAUXADzv7Nmz3Mn1Glq0aKFlHly7ds1a1icn7HXr1k3VrVtXlS9f3voalSNHDpU6dWoVP3586+RGIf8s/5v8f/LvyL8r/438t/JnyJ8lf6bu7ef69esqU6ZMtI1nhg8fTr8KgIILAF5UrVo1JouvYejQoeQNrEMyqlSpQpt4Jlq0aEYU2QAouADgtS1atIgJ42uQvTryzMgds8k+NNrD/zRq1Ii8AEDBBQBhkSOckyZNyqTxNQ/R2LVrF/ljqLlz52px55k//frrr+QGAAouALDTtWtXJo2vKVmyZOrMmTPkj2FWr16tokSJQhvgsAwAFFwAEH5Hjx7lWOs3kCtXLnXr1i1yyBDyFUe+bpL7/zZixAjyAwAFFwC8SuXKlZk8voGqVauqR48ekUOakyWkHP/OYRkAKLgA4I2tXLmSCeQbqlevnrUXjjzSk1x6nSBBAnKdwzIAUHABwJt78uQJdwq9hQ8//JCiS0PHjx+39uuR42HbsmULeQKAggsAwmvUqFFMIt/CBx98oB4+fEguaeLUqVMqTZo05LaN7NmzkycAKLgA4HXcvHlTxY4dm8nkW6hduzZFlwZ2797Nl61XGDlyJLkCgIILAF5X+/btmUy+pRo1aqgHDx6QTx61Zs0aXjy8QvTo0dX169fJFwAUXADwuo4cOcIR8X5QvXp1de/ePXLKY6ZNm6YiR45MDr9Cs2bNyBcAFFwA8KaqVKnCpNIP8ufPr86ePUtOecTAgQPVu+++S+6Gw969e8kZABRcAPCmNmzYwKTST5InT6527NhBXrmY3KP22Wefka/hVLZsWfIGAAUXALytggULMrn04+Wws2fPJq9c6MyZM6p48eLk6WtYtmwZuQOAggsA3taiRYuYXPpZjx491OPHj8kvF+V4/Pjxyc3XIHf1kcMAKLgAwA/kIuRs2bIxyYyAEwzl+H1yzDlymEm7du3IxzcwduxYcggABRcA+MvUqVOZZEYAuUx33bp15JgDDh48qHLlykUevoG4ceOq27dvk0cAKLgAwF/kAt/33nuPyWYEkNPw2rRpo27dukWuBYAsgxs/fryKESMG+feGunTpQi4BoOACAH8bOXIkk80IlDZtWrV+/XpyLQJt375dvf/+++TbW5C7yeSAEfIJAAUXAPjZnTt3VOLEiZl0RvDXrrZt27Jcy88uXLigmjRpwt1aflCvXj1yCgAFFwBElO+++45JZ4C+ds2bN886sIS8e3OhoaFq+PDhKk6cOOSVn/z222/kFgAKLgCIKHfv3lXJkiVj4hkgefPmVStXriT3XpMUqnJHFKdr+lfhwoXJLwAUXAAQ0UaPHs3kM8BKlCihtmzZQv6F43AXOVEze/bs5E0EkPvKyDMAFFwAEMHu37+vUqVKxQTUAVWrVlW7d+8mD18g95kNGzZMpUyZkjyJIPK1kCWuACi4ACBAJkyYwCTUIUFBQapixYpqwYIF1hcdk/Pw/Pnzqlu3buzRCoBp06bR9wGg4AKAQC7dkoMdmIg6S06NlDuRjh49akzuXbt2TU2aNEmVL19eBQcHkwcBkDp1ausAEvo+ABRcABBAM2bMYDLqouPkS5curWbPnm0t+dRxyaDkW7Vq1VRISAgxDzDZt0mfB4CCCwAcOAmuQIECTEhdRpbX1apVS40bN04dO3bMs/l1/Phx6wCM2rVrq2jRohFbB7+iyumk9HkAKLgAwAHbtm3jMlmXS5MmjWrZsqWaO3euunr1qivz6NGjR2rXrl1qxIgR6oMPPuDqARcZOHAgfR0ACi4AcFLDhg2ZmHrowI08efKoRo0aWRPphQsXqgMHDqgHDx4EJFceP36sTp8+rTZs2KAmT56sevToYe3FihUrFvFx6dfS69ev088BoOACACedOXNGxYgRgwmqh8nhE5kyZVI1atSwDuGQL01SEM2bN8+6eFnuANu7d686ceKEunLlilWgycEpMhn/+++/1eHDh9Uff/yhNm/ebP37coKinGr33XffqbZt26rKlSurzJkzqyhRovC8PUROgKSPA0DBBQAu0LdvXyaogEZk39yFCxfo3wBQcOH/2rvP6CrLrH/AK4TQe1NAbChYkKYIIoplVARBfXVwVMQyKhbs4jiCDdso6tgV8cVRRAVFgbHAKDKDjIiIFaQI0iHUhITk//H++5xxfBUpCeQk55zn+nAt1uJjzr733r9zngKkguimei9DhswR/TKptwECF0AKiR5JblGF9Bdd+hldKqyvAQIXQAqJHhN/1FFHWVghzV1xxRV6GiBwAaSi6dOne0w8+HULQOACSJYLLrjA4gppasCAAfoYIHABpLIlS5aEWrVqWV4hDX/dit6Tpo8BAhdAirvvvvsssJBmLr/8cv0LELgA0kFhYWE4/PDDLbGQJqpUqeLXLUDgAkgns2fPTlyiZJmF1HfZZZfpW4DABZBu7r77bssspMGvWwsXLtSzAIELIB0vLezQoYOlFty7BSBwASTDrFmzEt+gW2wh9VSrVs17twCBCyDd3XHHHZZbSEFXX321HgUIXADprqCgILRt29aCCymkRo0aYenSpXoUIHABZIKZM2eGnJwciy6kiOuuu05vAgQugEwyePBgiy6kgFq1aoUVK1boS4DABZBJNm/e7KmFkAIGDRqkJwECF0Ammjt3bqhbt66lFypInTp1wurVq/UjQOACyFSjR4+2+EIFue222/QhQOACyHQDBgyw/EI5q1evXsjNzdWDAIELINPl5+eHdu3aWYKhHN155536DyBwAcTFnDlzEveTWIQh+Ro0aBDWrVun9wACF0CcvPLKK5ZhKAf33XefngMIXABxdPnll1uIIYmaNGkSNmzYoN8AAhdAHOXl5YX27dtbjCFJHnroIb0GELgA4mzhwoWhcePGlmMoY02bNg2bNm3SZwCBCyDuPvzww5CTk2NJhjL06KOP6i+AwOWPAPAfTz75pCUZytDGjRv1FkDg8kcA+D+XXXaZRRnKQN26dfUUAIEL4NcKCgpCt27dLMywm1q2bKmnAAhcAL+1fPny0KJFC0sz7IbOnTvrJwACF8C2ffrpp6FGjRoWZ9hFvXv31ksABC6A7Xv55ZctzrCLLr74Yn0EQOAC2LGbb77Z8gy7YNCgQXoIgMAFsGNFRUWhR48eFmgopYceekgPARC4AHYuNzc3tGrVyhINpfDiiy/qHwACF0DJfP3114n3ClmkoWT+/ve/6x0AAhdAyY0ePdoiDSU0c+ZMfQNA4AIoncsuu8wyDSUQXYqrZwAIXAClsmnTpnDYYYdZqGEH6tSpo18ACFwAu+bLL78MNWvWtFjDdrRp00avABC4AHbd008/bbGG7ejZs6c+ASBwAey64uLi0LlzZ8s1bMMVV1yhTwAIXAC755NPPglZWVkWbNjK/fffr0cACFwAu69Xr14WbNjKK6+8oj8ACFwAu++jjz6yYMNWpk2bpj8ACFwAZXMvV/369S3Z8AtLly7VHwAELoCy0aNHD0s2/KRq1aqJLyL0BgCBC6BM3HXXXRZt+MmBBx6oLwAIXABl5/3337dow0+iB8noCwACF0CZWb9+fcjOzrZsw4+uv/56fQFA4AIoW23btrVsw4+effZZPQFA4AIoWwMGDLBsw4+mTJmiJwAIXABla+TIkZZt+NHKlSv1BACBC6BszZ0717JN7DVo0EA/ABC4AJKjcePGlm5irUuXLnoBgMAFkBy9e/e2dBNrF154oV4AIHABJMd9991n6SbWojOgFwAIXABJ8eGHH1q6ibWxY8fqBQACF0BybNq0KeTk5Fi8ia2vv/5aLwAQuACS54gjjrB4E0vRlw0FBQX6AIDABZA8AwcOtHwTS61atdIDAAQugOQaNWqU5ZtYip7SqQcACFwASfX9999bvomlG2+8UQ8AELgAkq958+YWcGLnueeec/4BBC6A5Ovbt68FnNiZOnWq8w8gcAEk3xNPPGEBJ3ZWrVrl/AMIXADJ9+WXX1rAiZWGDRs6+wACF0D5KC4uDo0bN7aIExtdu3Z19gEELoDyc8YZZ1jEiY2LLrrIuQcQuADKz8MPP2wRJzYeeOAB5x5A4AIoPzNnzrSIExsTJkxw7gEELoDyU1RUFOrWrWsZJxZ++OEH5x5A4AIoX7169bKM4wmFAAKXPwJAMkT3tVjIyXTHHXec8w4gcAGUv48//thCTsYbOHCg8w4gcAGUv8LCwlCrVi1LORlt+PDhzjuAwAVQMX73u99Zyslon3zyibMOIHABVIy77rrLUk7Gys7ODnl5ec46gMAFUDGmTJliMSdjHXTQQc45gMAFUHHy8/ND9erVLedkpLPPPts5BxC4ACrWscceazknI919993OOIDABVCxbrvtNss5GWncuHHOOIDABVCx3nvvPcs5GWnhwoXOOIDABVCxNm7cGKpUqWJBJ6PUq1fP+QYQuABSQ5cuXSzpZJRu3bo52wACF0BquPnmmy3pZJQrr7zS2QYQuABSw/jx4y3pZJSnn37a2QYQuABSw9q1a0N2drZFnYwxffp0ZxtA4AJIHR06dLCokxEqV64c8vLynGsAgQsgdVx77bWWdTJC27ZtnWkAgQsgtYwdO9ayTkbo37+/Mw0gcAGkllWrVoWsrCwLO2nv0UcfdaYBBC6A1HPYYYdZ2El7U6dOdZ4BBC6A1HP11Vdb2Elr0dM2N27c6DwDCFwAqWfMmDGWdtJanTp1wmuvvRby8/OdaQCBCyD17uOqVKmSxZ20V69evXDppZeGjz76KBQXFzvfAAIXQGqIHqltYSeT7L///mHw4MFhzpw5zjiAwAVQsQYOHGhJJ2N16dIlPPHEE2H16tXOO4DABVD+vI+LOKhatWo4/fTTE/W+efNmZx8QuAAoH9E3/+7jIk4aNGgQBgwYEP71r3+53wsQuABwHxckywEHHBBuv/32MG/ePL0AELgASI5rrrnG8k2sZWVlha5du4annnoq5Obm6guAwAWA+7ggWfd7nXnmmeGNN94IBQUFegQgcAGwe9asWeM+LtiGhg0bhiuvvDJ8/PHHegUgcAGw69q3b2/Bhh1o1apVuOuuu8L8+fP1DEDgAqB0rr32Wks1lPB+r2OOOSY8++yz7vcCBC4ASubNN9+0TEMpVatWLZx11llh3Lhx7vcCBC4Ati/6pj47O9sSDbuocePG4eqrrw7//ve/9RRA4ALgtzp06GBxhjJw0EEHhaFDh4aFCxfqLYDABcB/XHfddZZlKEPR0z+7d+8ehg8fHtauXavPAAIXQJxF96FYkiE5atSoEfr27RvGjx8fCgsL9RxA4AJwHxeQDE2aNAnXXHNN+PTTT/UeQOACiJOOHTtaiKEcHXrooeHee+8NixYt0oMAgQsg011//fWWYKig+71OOOGEMGLEiLB+/Xr9CBC4ADLRW2+9ZfmFClazZs3whz/8IUycODFs2bJFbwIELoBMET1JzX1ckDqaNm0abrjhhvD555/rUYDABZAJDj/8cIsupKD27duHYcOGheXLl+tVgMAFkK5uvPFGyy2ksMqVK4eePXuG0aNHh7y8PH0LELgA0kn0niBLLaSHunXrhksvvTRMnTo1FBcX62GAwAWQ6tatW5f4Bt0yC+mlZcuW4Y477gjz58/XywCBCyCVderUyQILaSorKyscc8wx4bnnnks8CEdPAwQugBRz0003WVwhA1SvXj307ds3TJgwwSPmAYELIFVEy5llFTLLnnvumXi5+axZs/Q5ELgAqEjr1693HxdksHbt2nnEPAhcAFSkI4880mIKHjEPCFwAJMPNN99sIYWYPWL+j3/8Y/joo488Yh4ELgCSbeLEiZZQiPEj5m+//fYwb948/RAELgCSdR9XTk6O5RNi/oj5bt26hWeffdYj5kHgAqCsde7c2dIJeMQ8CFwAJMPZZ59t0QS2+Yj56667Lnz22Wd6JQhcAOyKoUOHWiyBEj1i/uGHHw6rVq3SO0HgAqAk7rvvPoskUCpVqlQJZ555ZnjrrbdCYWGhXgoCFwDb8uCDD1oegd2+5PCmm24KX331lb4KAhcA/zVs2DDLIlCmoofvPPXUUyE3N1efBYELIL4effRRyyGQNDVq1AjnnntueO+990JRUZG+CwIXQHw89thjifftWAqB8rD33nuH2267zYuVQeACyHxPPvmksAVU2IuVu3fvHl544YWwYcMGPRkELoDM8swzzwhbQEqoXbt2uOiii8JHH30UiouL9WgQuADS2/Dhw0OlSpUsekDKOfDAAxPvAly8eLF+DQIXQPqJLt8RtoBUl52dHU455ZQwevToUFBQoH+DwAWQ+l588cXEEmOZA9JJs2bNwr333uvx8iBwAaSul156SdgC0lqtWrXC1Vdf7QmHIHABpJZXXnklVK5c2cIGZMzlhv379w9Lly7V40HgAqhYr732mrAFZOzTDe+5556Qn5+v34PABVD+xowZE3JycixmQEbbb7/9wvjx4/V9ELgAys/YsWOFLSBWL1IePHhwKCoqMgNA4AJIrnHjxoUqVapYwoDYOe2008LatWvNAhC4AJLj7bffDlWrVrV4AbHVunXrsGzZMjMBBC6AsjVx4sRQrVo1CxcQe0cddVTYvHmz2QACF0DZeOedd4QtgF+45JJLzAcQuAB23/vvvx+qV69uwQLYyuOPP25OgMAFsOsmT54catSoYbEC2M67utzPBQIXwC754IMPQs2aNS1VADswYMAAMwOByx8BoHQ++uijUKtWLcsUwE5EX0zl5uaaHQhcAJTMP//5z8RlMhYpAPdygcAFUIamTZsW6tSpY4ECKIUzzjjDDEHgAmDHpk+fHurWrWt5AiilJk2amCMIXABs3yeffCJsAeyGOXPmmCcIXAD81qeffhrq169vYQLYDSNGjDBTELgA+LWZM2eGBg0aWJYAdtM111xjriBwAfB/Zs2aFRo2bGhRAigD/fv3N1sQuAD4j9mzZ4dGjRpZkgDKyOmnn26+IHAB8P/Cl19+mXiilgUJoOwcf/zxZgwCF0Dcff3112GPPfawHAGUsY4dO5ozCFwAcfbNN9+Epk2bWowAkuCAAw4waxC4AOIqej9Ms2bNLEUASXLwwQebNwhcAHH03XffhebNm1uIAJKoS5cuZg4CF0DczJs3L7Ro0cIyBJBkPXr0MHcQuADiZMGCBWGfffaxCAGUg759+5o9CFwAcbFw4cKw7777WoIAysnll19u/iBwAcTBokWLwv77728BAihHgwYNMoMQuAAy3eLFi0PLli0tPwDl7IEHHjCHELgAMtmSJUvCgQceaPEBqACvv/66WYTABZCpli5dGlq3bm3pAaggn332mXmEwAWQiZYtW5Z44aaFB6BiZGVlhQ0bNphJCFwAmWbFihXh0EMPtfAAVKCmTZuaSQhcAJlm5cqVoU2bNpYdgArWrVs3cwmBCyCTrFq1KrRt29aiA5ACLrzwQrMJgQsgU6xZsya0a9fOkgOQIu6++27zCYELIBPk5uaGjh07WnAAUsgrr7xiRiFwAWRC2DriiCMsNwApZsaMGeYUAhdAOlu7dm048sgjLTYAKSjq0WYVAhdAmlq3bl3o0qWLpYYS69evX+jfv3/iXr+qVav6m0ASNWrUyKxC4PJHANLV+vXrQ9euXS01lEi1atXCCy+88KsaKigoCJ999lni/6+55prQvXv3UL9+fX8vKCOdO3c2rxC4/BGAdLRhw4bEu10sNJREs2bNwscff1zi+lq4cGF44403wu233x769OkT9t1335CVleVvCaV03nnnmVkIXP4IQLrZuHFjOPbYYy0zlEh0f9+SJUvK5MEsH3zwQXj44YddkgglFH1pYW4hcPkjAGlk06ZN4fjjj7fIUCJRMMrPz09aPf73ksQRI0b8fElivXr1/O3hJ6NGjTK7ELj8EYB0kZeXF0488URLDDtVuXLlMGzYsAqr1QULFoSxY8e6JJHYmzlzpvmFwOWPAKRL2Dr55JMtMOxUgwYNwnvvvZeS74r7xz/+8atLEqtUqeIzI2NVqlQpcVWCGYbA5Y8ApLjokrAePXpYYNipNm3ahO+++y5taju6JDH6BcAliWSiffbZxwwDgQtIdZs3bw49e/a0vLBTp59+euJVAele88XFxT9fkjhkyJDQu3fvxOLqkkTSTXRVgjkGAheQ4t/+R8umxYUdiYJIFEyioJLJ5+G/lyRG96ZdcMEFoW3bti5JJKUNHDjQLAOBC0jlsBX9YmFpYUdq1aoVxowZE+tfgP97SWK03EavS3BJIqni8ccfN89A4AJSUWFhYTjzzDMtLOzQfvvtFz7//HNnpoSXJKoZytukSZOcSRC4gFQMW2effbZlhR2K3sW2atUqZ6aUlyROnjzZJYmUm7J44TgIXABlaMuWLaFv374WFXZ6X0gUzJ2Zsrsk8fnnn//5ksS6deuqM3ZbnTp1nDEQuIBUC1vnnnuuRYXtqlq1aiIYOC/JvyRx/vz5LklktxxxxBHOEwhcQKooKioK/fr1s6SwXU2bNg3Tpk1zXlLkksTovLokkR0577zznBsQuIBUCVsXXnihBYXt6tSpU/jhhx+clzS4JPGYY45xSSIJd999tzMCAheQCpcuXXLJJZYTtiv6JSUvL895SdNLEgcPHpy4JHHvvfdWzzHz2muvOQ8gcAEVvZRdeumlFhO2KTs7O3HpmrOSOdasWeOSxBiZPXu2ugeBC6jIsDVgwABLCdtUv3798O677zorMbkk8dNPPw3Dhw93SWKGfWGSn5+vxkHgAioqbF111VWWErbpkEMOCXPnznVWYt4j5s2bF8aMGeOSxDTVsmVLtQwCF1BRom+xLSRsS7RYr1u3zjlhu5ckTpo0KTz00EM/X5KYk5Pj7KSgU089Vc2CwAVUhOuuu84ywm9kZWWF2267LfHESucElySmv6jXq08QuIByduONN1pE+I1atWqF119/3RkhKZckRkH+tNNOCy1atHDeytHTTz+tFkHgAsrToEGDLCH8xr777htmzZrljFAuVq9e/fMlieeff3447LDDXJKYJB9++KGaA4ELKC+33nqrBYTfOO6448KqVaucESpU9CS9/16SePXVV4du3bq5JLEMrFixQn2BwAWUhyFDhlg++I1osS0sLHRGSPlLEv06v2uvdVBHIHAB5eDOO++0fPArVatWDc8995zzQdpYuHChs1tKnTt3VjsgcAHJNnToUIsHv7LnnnuGf/7zn84HaWXatGnObyn1799f7YDABSTTfffdZ+ngVw4//PCwePFi54O0M3bsWGe4lKIZoHZA4AKS5C9/+YuFg18577zzQl5envNBWnrsscec41J688031Q4IXEAyDBs2zLLBz7KzsxMB3Nkgnf35z392nktpzpw5agcELqCsPfLIIxYNflavXr3w97//3dkg7V188cXOdCkfjLNlyxa1AwIXUNaX3GRlZVk2SDj44IN9w03GOPXUU53rUoheJq1uQOACytCTTz4pbPGz0047Laxdu9bZIGO0b9/e2S6Fs88+W92AwAWUlWeeeUbYIiGqg1tvvTUUFRU5G2SU6HUGznjJDR48WN2AwAWUheHDh4dKlSpZMAg1a9YMr776qnNBxonuRYoe/uKcl9yoUaPUDghcwO4aMWKEsEXCPvvsE2bOnOlckJGWLFninJfSrFmz1A4IXMDuGDlypLBFwrHHHhtWrlzpXJCxZsyY4ayX8lUQ+fn5agcELmBXvfTSSy6vIeHKK68MBQUFzgUZ7a233nLeS6Fly5bqBgQuYFe98sorwhahSpUqiYelOBPE5cFAzn3J9erVS92AwAXsiuiBCJUrV7ZQxNwee+wRpk6d6kwQG3fccYezXwo33nijugGBCyitMWPGhJycHMtEzHXs2DEsWrTImSBWBgwY4PyXwvPPP69uQOACSmPs2LHCFuEPf/hD2LRpkzNB7PTp00cPKIVp06apGxC4gJIaN25c4n4dS0S8nzj2wAMPOA/E1pFHHqkXlMLatWvVDQhcQEm8/fbboWrVqhaIGKtbt26YMGGC80Cs7b333vpBCTVr1kzNgMAFlMTEiRNDtWrVLBAxdtBBB4Vvv/3WeSDWiouL/cpfCieccIK6AYEL2Jl33nlH2Iq5nj17uiwIfrRq1So9oRSuuuoqdQMCF7Aj77//fqhevbrFIaaysrLCLbfcEoqKipwH+NHnn3+uN5TC448/rm5A4AK2Z/LkyaFGjRqWhpiKPvvoxdbOAvz6F3/9oeSiOaJuQOACtuGDDz4INWvWtDDEVPRQgJkzZzoLsJUXXnhBjyiFZcuWqRsQuICtTZkyJdSqVcuyEFPHHHNMWLFihbMA23DvvffqEyVUv359NQMCF7C1f/7zn6F27dqWhZgaMGBAKCgocBZgOwYOHKhXlNBRRx2lZkDgAn5p2rRpoU6dOhaFGIoec/3UU085B7ATZ511lp5RQhdffLGaAYEL+K/p06cnXmprSYifJk2aJC4jdQ5g544++mh9o4QefPBBNQMCFxD55JNPhK2Y6tChQ/j++++dAyihli1b6h0lNH78eDUDAhfw6aefhnr16lkOYuicc84JmzZtcg6gFDy9teTmz5+vZkDggniLHvvdoEEDi0HMVKpUKfGkteLiYucASmHdunV6SCne4+eF6SBwQazNmjUrNGzY0GIQM9Gloy7zgV3zzTff6CMl1L59ezUDAhfE1+zZs0OjRo0sBTHTunXr8PXXXzsDsIv+8Y9/6CUl9Ic//EHNgMAF8fTll18mnkpnIYiXU089NeTm5joDsBtefvll/aSE7rrrLjUDAhfEz1dffRX22GMPy0DM3Hzzze6lgDLw0EMP6Skl9Prrr6sZELggfvce7LnnnhaBmN20Hn0jr/6hbNxwww16SwlFV1OoGRC4IDbmzJkTmjVrZgmIkRYtWiQe+a/+oeyce+65+ksJ5OTkhIKCAjUDAhfEw9y5c0Pz5s0tATFy9NFHh+XLl6t/KGPHH3+8HlMCBx10kHoBgQviYd68eYlfOiwA8XHZZZf5ZhmS5OCDD9ZnSuD0009XLyBwQeZbsGBB2HvvvQ3/GF3C88QTT6h9SKJ69erpNyVwyy23qBcQuCCzLVy4MOy7774Gf0w0btw4fPjhh2ofkigvL0+/KaGRI0eqGRC4IHMtWrQo7L///oZ+TLRr1y4RsNU+JNf8+fP1nBKaMWOGmgGBCzLT4sWLQ8uWLQ38mPj9738fNm7cqPahHEydOlXfKYGsrKywYcMGNQMCF2SeJUuWhAMPPNDAj4FKlSqFe+65JxQXF6t9KCevvfaa/lMC0b3D6gUELsg4S5cuDa1btzbsY6Bu3brhrbfeUvdQzh599FE9qAROPvlk9QICF2SWZcuWJd55YtBnvlatWoWvvvpK3UMF+NOf/qQPlcC1116rXkDggsyxYsWKcOihhxryMXDKKaeE3NxcdQ8V5MILL9SLSuDpp59WLyBwQWZYuXJlaNOmjQEfAzfeeGPYsmWLuocKFH3poR/t3JQpU9QLCFyQ/latWhXatm1ruGe46tWrh7/97W9qHlKAnlsy0XxSLyBwQVpbvXp14t1LBntm22uvvbzLBlJIkyZN9KYSvIRdrYDABWktuoenQ4cOBnuG69q1a+JhKGoeUkNhYWHidQz6044dc8wx6gUELkjvsHX44Ycb6hnuj3/8Y9i8ebOahxQSvVRef9q5yy67TL2AwAXpae3ataFTp04GegbLyckJjz32mHqHFPTvf/9bnyqBhx9+WL2AwAXpZ926daFz586GeQZr1KhR+Mc//qHeIUW9+eabelUJvPPOO+oFBC5IL+vXr0/cz2OQZ67oyWcLFixQ75DCnnrqKf2qBBYtWqReQOCC9LFhw4bQrVs3QzyDnXXWWYnPWb1DahsyZIietRO1a9cOxcXF6gUELkgPGzduDMcee6whnqGip53dfffdlhNIE9HDIPSuHTviiCPUCghckB42bdoUjjvuOAM8Q9WpUyeMGzdOrUMa6d27t/61E/369VMrIHBB6svLywsnnnii4Z2hDjjggPDll1+qdUgz0a83etiO3XvvvWoFBC5I/bB10kknGdwZKvps16xZo9YhDe2111762E688cYbagUELkhd+fn5oUePHoZ2hrr++uvDli1b1DqkoaKiosR78vSyHfv222/VCwhckJo2b94cevbsaWBnoOrVq4cXX3xRnUMaW7FihX62E1WrVvWlEghckJoKCgrcjJ2hmjdvHv7973+rc0hzn332mZ62E23atFErIHBBaoatPn36GNYZqEuXLmHp0qXqHDLAxIkT9bUSvFNQrYDABSmlsLAwnHnmmQZ1Brr44osTl4mqc8gMzz//vN62E4MHD1YrIHBBaoWt6NtAQzqzVK5cOTz66KNqHDLM0KFD9bidGDVqlFoBgQtSQ3RTcd++fQ3oDNOwYcMwefJkNQ4Z6KqrrtLndiK6z02tgMAFKRG2zj33XMM5w7Rt2zbMnz9fjUOGcvn3jmVnZyfeI6lWQOCCChW9x6Vfv36Gc4aJFrENGzaocchgRx11lH63Ay1btlQnIHBBxYet/v37G8wZpFKlSuHOO+8MxcXFahwy3H777afv7UCvXr3UCQhcUHGihTx6ap2hnDlq164d3njjDfUNMRG9wFzv274bb7xRnYDABRUXti699FIDOcMunfniiy/UN8REbm6u3rcT0WPz1QoIXFAhYWvAgAGGcQb53e9+F9asWaO+IUa++uor/W8npk2bplZA4ILyD1seI5xZrr322sRTJtU3xMukSZP0wJ1Yu3atWgGBC8rXwIEDDeEMUa1atfC///u/6hpi6m9/+5teuAPNmzdXJyBwQfm67rrrDOEM0axZszB9+nR1DTH2l7/8RT/cgRNPPFGdgMAF5Sd6UpMBnBk6d+4clixZoq7Bl2h64g5EV3SoExC4oFwMGjTI8M0QF154YcjPz1fXQDjnnHP0xR146qmn1AkIXJB8t956q8GbASpXrhweeeQRNQ38rHv37vrjDkyZMkWdgMAFyTV48GBDNwM0aNAgvP/++2oa+JXWrVvrkTuwevVqdQICFyTPnXfeaeBmgDZt2oR58+apaeA36tatq09uR5MmTdQICFyQPEOHDjVwM8AZZ5wR1q9fr6aB39i4caM+uQPR5ZbqBAQuSIr77rvPsE1zWVlZ4fbbb0+8pFpNA9syd+5c/XIHrrjiCnUCAheUPe9kSX+1a9cOY8eOVc/ADkUPhNAzt++vf/2rOgGBC8rWsGHDDNk0t//++4fZs2erZ2CnRo8erW/uwKRJk9QJCFxQdqLHhRuw6e2EE07wRC2gxB5++GG9cweWLVumTkDggrLx2GOPJe75MWDT18CBA0NhYaF6BkrMC+13/CoNNQICF5SJJ598UthKY9WqVQsjRoxQy0CpXXDBBfrodnTt2lWNgMAFu++ZZ54RttJY06ZNw7Rp09QysEtOOukkvXQ7/vjHP6oRELhg9wwfPjxUqlTJYE1TnTp1Cj/88INaBnbZYYcdpp9uR/QQKTUCAhfssugSNGErfUWXAeXn56tlYLc0atRIT92Od955R42AwAW7ZuTIkcJWmqpcubJvXYEyUVBQ4JLyHVi0aJE6AYELSu+ll14K2dnZhmkaql+/fnj33XfVMVAmvv/+e711O+rUqROKi4vVCQhcUDqjRo0SttLUoYceGubOnauOgTLz8ccf66/bceSRR6oRELigdF599dXE5WgGafrp06dPWLdunToGytTYsWP12O248MIL1QgIXFByY8aMCTk5OYZomonurRg8eLDLWoCkeOKJJ/Ta7XjggQfUCAhcUPJvMIWt9FOrVq3w+uuvq2EgaW677Tb9djvefvttNQICF+zcuHHjQpUqVQzPNLPffvuFWbNmqWEgqaIX++q52zZ//nw1AgIX7Fj07VzVqlUNzjRz/PHHh1WrVqlhIOl69eql725DzZo1XcoNAhfs2MSJE4WtNHT11VeHwsJCNQyUi44dO+q929ChQwf1AQIXbN8777wTqlWrZmimkSgcDx8+XP0C5app06Z68Dacd9556gMELti29957L1SvXt3ATCN77rln+Ne//qV+gXJVVFTkVSHbcc8996gRELjgtyZNmhRq1KhhWKaRI444IixevFj9AuVu2bJl+vB2RE/3VSMgcMGvfPDBB4mbfA3K9HH++eeHvLw89QtUiJkzZ+rF2/Htt9+qERC44P9MmTIl8c4mQzI9ZGdnhwcffFDtAhVq/PjxevI2RPdAb9myRY2AwAX/MXXq1FC7dm1DMk3Ur18/8VATtQtUtOeee05f3oa2bduqDxC44D+iBy3UqVPHgEwThxxySJgzZ47aBVLCXXfdpTdvQ9++fdUHCFzw/8L06dND3bp1Dcc00bt377Bu3Tq1C6SMK664Qn/ehjvuuEN9gMBF3H3yySfCVprIysoKf/7znxOPX1a7QCo5/fTT9elteO2119QHCFzE2YwZM0K9evUMxTQQPTXS4AZSVefOnfXqbfjyyy/VBwhcxFX0CN8GDRoYiGlg3333DZ999pm6BVLWPvvso19vJScnJxQUFKgPELiIo2h5b9iwoYGYBrp37x5WrlypboGUVVxcnHj8uZ79awcffLD6AIGLOJo9e3Zo1KiRYZgGrrrqqlBYWKhugZS2Zs0aPXsbzjzzTPUBAhdx88UXX4TGjRsbhCmuSpUq4dlnn1WzQNrMFr37t2677Tb1AQIXcfLVV1+FPfbYwxBMcdFnFL2AWs0C6eK9997Tv7fh5ZdfVh8gcBEX33zzTdhzzz0NwBR3+OGHh0WLFqlZIK2MHDlSD98GDzsCgYuYmDNnTmjWrJnhl+LOPffckJeXp2aBtHP//ffr41vJzs4O+fn56gMELjLd3LlzQ/PmzQ2/FB/Kf/nLX9QrkLauueYa/XwrBx54oNoAgYtMN2/evNCiRQuDL4VFL52eOHGiegXS2u9//3s9fSu9e/dWGyBwkcnmz58f9t57b0MvhR100EHh22+/Va9A2jvmmGP09a0MGjRIbYDARaZauHBh2HfffQ28FNarV6+wdu1a9QpkhOjyOb3916IHiagNELjIQN9//33Yb7/9DLsUlZWVFf70pz+FoqIi9QpkjNq1a+vxW5kxY4baAIGLTLN48eLQsmVLgy5F1axZM4wePVqtAhll/fr1evxWKlWqFDZu3Kg+QOAik/zwww8u6Uhh++yzT5g5c6ZaBTJOdC+qPv9r0WX9agMELjLI0qVLQ6tWrQy5FBXdTL5ixQq1CmSkDz74QK/fyqmnnqo2QOAiUyxbtizxtDsDLjVdccUVoaCgQK0CGWvUqFH6/VZuuOEGtQECF5kg+tXkkEMOMdxSUJUqVcLTTz+tToGMN2zYMH1/K8OHD1cbIHCR7lauXBnatGljsKWgJk2ahI8++kidArFw00036f1bmTZtmtoAgYt0tmrVqtC2bVtDLQV16NAh8Wh+dQrExfnnn6//b/X6j3Xr1qkNELhIV6tXrw7t2rUz1FLQOeecEzZt2qROgVg58cQTzYBf2GuvvdQFCFykqzVr1iR+QTHQUkt2dna4//771SgQS4ceeqhZ8Au/+93v1AUIXKSj3NzccPjhhxtmKaZu3bphwoQJahSIrQYNGpgHvzBw4EB1AQIX6Wbt2rWhU6dOBlmKad26dfjmm2/UKBBb+fn5iXuWzIT/4wm1IHCRZqIbbzt37myIpeBLLaNfHdUoEGcLFiwwE7biKbUgcJFG1q9fH7p27WqApdjTpwYNGhSKiorUKBB7//rXv8yGrUT3W6sNELhIAxs2bAjdunUzvFJIjRo1wqhRo9QnwE/GjBljPvzCHnvsoS5A4CIdbNy4MRx77LGGVwpp0aJF+PTTT9UnwC889thjZsQvHHfcceoCBC5SXfQep6hhG1ypI/qlcfny5eoTYCu33nqrOfELV155pboAgYtUD5IA6UoAAAt1SURBVFteIJlaLr/88lBQUKA+AbbhoosuMit+IfrFT12AwEWKysvLCyeddJKBlSKqVKkSnnzySbUJsAM9evQwM35h8uTJ6gIELlJR9B6TU045xbBKEY0bNw4ffvih2gTYiXbt2pkbv+DycxC4SEGbN28OPXv2NKhSRPv27cPChQvVJkAJRE/lMzv+o0GDBmoCBC5SMWyddtppBlWK6Nu3b+IJkWoTYOe2bNkSsrOzzY+fHH300eoCBC5SSfQghj59+hhSKaBSpUrh3nvvDcXFxWoToISWLFlihvzCpZdeqi5A4CJVFBYWhjPPPNOASgF169YNb7/9troEKKUZM2aYI7/w8MMPqwsQuEiVX7bOOusswykFtGrVKnz99dfqEmAXvPXWW2bJL7z77rvqAgQuKtr3338fOnfubDClgOhRxrm5ueoSYBc988wz5skvLF68WF2AwEVFmjBhQmjYsKGhlAJuuummUFRUpC4BdsMdd9xhpvzi8nQ1AQIXFSR6EMOQIUMSD2YwlCpW9erVw8svv6wuAcrA5Zdfbrb8JLp6RU2AwEUFiB6Ze/HFFxtGKWCvvfZK3OCtLgHKRu/evc2Xn1x00UVqAgQuytumTZsMoxR6N8ry5cvVJUAZ6tSpkxnzkwcffFBNgMBFecrLywvHHXecIZQi70WJXjCtLgHKVosWLcyZn4wfP15NgMBFeV5G6IXGFS8nJyc8/vjjahIgSfcnV6lSxbz5yYIFC9QFCFyU1wByz1bFa9SoUfjggw/UJECSrFq1yrz5Sa1atRLzX12AwEU5uP/++w2fCtauXTvfNAIk2eeff27m/KRjx45qAgQuysPUqVND5cqVDZ8KdPbZZ4eNGzeqR4Akmzx5srnzk/PPP19NgMBFeVxaET123OCpGNE7zoYOHeqSDoBy8sYbb5g/P7n33nvVBAhcJNt5551n6FSQOnXqhHHjxqlDgHI0cuRIM+gnUfhUEyBwkUTRwxmysrIMnQpw4IEHhq+++kodApSzxx57zBz6yZw5c9QECFwkS0FBQTjkkEMMnApw8sknh9zcXHUIUAHuueces+hH1apVS7wORk2AwEWSjBgxwsCpADfccIMBB1CBbrnlFvPoR23btlUPIHCRLEVFReGggw4ycMpR9erVw4svvqj+ACrYlVdeaS796JxzzlEPIHCRLGPHjjVsylH0FMhPPvlE7QGkgH79+plNP7rzzjvVAwhcJMspp5xi2JSTo446KixbtkzdAaSIiy++2Hz60euvv64eQOAiGZYvX+4lx+XkkksuCZs3b1Z3ACnkqquuMqN+5Em5IHCRJI888ohBk2Q5OTnhr3/9q3oDSEE33XRT7OdUlSpVQmFhoXoAgYtk6NGjh1CURI0aNQqTJ09WawApasiQIbGfVdFrYdQCCFwkQfQ48jp16ghGSXzE7vz589UaQAq7//77Yz+v/ud//kctgMBFMsyYMUMwSuLw2rBhgzoDSHGPPvpo7GfW4MGD1QIIXCSDlx2XvUqVKoW77rorFBcXqzGANPDcc8/FfnaNGTNGLYDARTLccsstQlIZii7PfPPNN9UWQBp5+eWXYz27qlatGtatW6cWQOAiGaLL3gSlsnHAAQeEL774Ql0BpJl333031vPr1FNPVQcgcJEs3bt3F5bKwEknnRTWrFmjpgDSUPT+qTjPsGeeeUYdgMBFsnTo0EFg2k3XXXdd4mmP6gkgPUUPOIrzfcfLly9XByBwkSytW7cWmnZRtWrVwsiRI9URQAaoV69eLGfZ0Ucf7fMHgYtk6tixo/C0C5o3bx6mT5+uhgBc8ZHWHnzwQZ8/CFwkU3TvkQBVOl26dAlLly5VPwAZpF+/frGcad99953PHwQukumcc84RokrhoosuCvn5+WoHIMM88MADsZtpbdu29dmDwEWyXXXVVYJUCVSuXDk88sgjagYgQ02YMCF2s23w4ME+exC4SLYhQ4YIVDvRsGHDMGnSJPUCkMGiS8XjNNuysrLCnDlzfPYgcJFszz77rFC1A4cddliYN2+eWgGIgVatWsVmvp144ok+cxC4KA9ffPGFYLUdZ5xxRli/fr06AYiJSy65JDYzbsyYMT5zELgoD8XFxaF+/foC1laXWdxxxx2Jv40aAYiPF198MRZzrlmzZqGwsNBnDgIX5aVnz56C1k9q164dxo4dqy4AYuiHH35IfOnmYRmAwEWZGjp0qLD1o5YtW4bZs2erCYAYi961mOlP3V20aJHPGgQuytOUKVNiH7aim4dXr16tHgBi7sEHH8zoede7d2+fMwhclLeioqKw1157xTZsXXPNNWHLli1qAYCwYMGCjJ55f//7333OIHBREf70pz/FLmhVq1YtvPDCCz5/AH6la9euGTn3jjzySJ8vCFxUlG+//TZWYSt6QtPHH3/sswfgN1599dWMnH3vvfeezxcELirSUUcdFYuwFX3Dt2TJEp85ANsUPTK9RYsWGTX7unfv7rMFgYuKNnz48IwPW/379w/5+fk+bwB26P7778+oJxPOnDnT5woCFxWtoKAgHHDAARn7GNxhw4b5nAEokfXr14emTZtmxAy8/vrrfaYgcJEqRo8enXFhq0GDBq5bB6DURowYkfYzcJ999gkbNmzweYLARaooLi4Oxx9/fMaErUMPPTR89913PlsASi16bUrHjh3Tdgbm5OSEqVOn+ixB4CLVLF26NDRp0iTtw1afPn0Sl4T4TAHYVdOnT08El3Scg9FLnH2GIHCRot59993EfU/pOGCysrLCkCFDEr/W+SwB2F0PPfRQ2s3C3//+9+YgCFykuldeeSVkZ2en1YCpVatWGDNmjM8PgDK93L53795pMwt79eqVeBCWzw4ELtLASy+9lDahq2XLluHzzz/3uQFQ5tasWRPatm2b8rPwlFNOCXl5eT4zELhIJ5MmTQqNGzdO2eESBcJrr73WU5gASKrVq1eH9u3bp+w8vPLKKxMvbfZZgcBFGlq0aFHo0qVLSj6F8OOPP/YZAVBuv3Sl2pMLo8vpn376aZ8PCFyku+jxuE899VTivVYVPVz233//8Pzzz/smD4Byt2nTpnDFFVckHtJU0fOwR48eYcGCBT4XELjIJCtXrkxcwle7du1yHyytW7cOw4cPF7QAqHBvv/12hb1GpWvXrmHChAk+BxC4yGS5ubnhnnvuSbzFPplDpWbNmuGCCy4IU6ZM8YhbAFJuFg4dOjTsscceSQ9ZdevWDf379w8ffvihvz0IXMRJFIKiF0PedNNN4eCDDy6TSyz222+/cPnll4exY8d6eTEAKS96MmB0H1X0y1NZvSg5eihUu3btwsCBA8Mbb7wR8vPz/a1B4IL/3FAcXeZw++23h379+oVjjz02EaDq1auX+LUqGkTREGnYsGHiEsFoOJ1zzjmJbwjffPNN16IDkNaiLwrHjx8frr/++tCzZ89w5JFHJl5dEv1CVbly5cS/e+21V+JLyk6dOoUTTjgh9OnTJ5x//vnhlltuCS+88EKYNm1aWLt2rb8nCFwAAAAIXAAAAAIXAACAwAUAAIDABQAAIHABAAAIXAAAAAhcAAAAAhcAAIDABQAAgMAFAAAgcAEAAAhcAAAACFwAAAACFwAAgMAFAACAwAUAACBwAQAACFwAAAAIXAAAAAIXAACAwAUAAIDABQAAIHABAAAIXP4IAAAAAhcAAIDABQAAgMAFAAAgcAEAAAhcAAAACFwAAAACFwAAgMAFAACAwAUAACBwAQAACFwAAAAIXAAAAAIXAACAwAUAAIDABQAAIHABAAAIXAAAAAhcAAAAAhcAAIDABQAAgMAFAAAgcAEAAAhcAAAACFwAAAACFwAAgMAFAACAwAUAACBwAQAACFwAAAAIXAAAAAIXAACAwAUAAIDABQAAIHABAAAIXAAAAOzU/wdNa7ahyYFnTAAAAABJRU5ErkJggg==;" parent="1" vertex="1">
          <mxGeometry x="480" y="295" width="57.33" height="60" as="geometry" />
        </mxCell>
        <mxCell id="HplvtqoMhJlTA8nNB5k_-1" value="Gym" style="rounded=0;whiteSpace=wrap;html=1;fillColor=#fff2cc;strokeColor=#d6b656;align=left;" vertex="1" parent="1">
          <mxGeometry x="45.5" y="180" width="940" height="60" as="geometry" />
        </mxCell>
        <mxCell id="t7QxfzS9N0kHJtA_tGLN-24" value="" style="shape=image;verticalLabelPosition=bottom;labelBackgroundColor=default;verticalAlign=top;aspect=fixed;imageAspect=0;image=data:image/png,iVBORw0KGgoAAAANSUhEUgAAA9QAAAOYCAQAAACeR3MYAAAABGdBTUEAALGPC/xhBQAAACBjSFJNAAB6JgAAgIQAAPoAAACA6AAAdTAAAOpgAAA6mAAAF3CculE8AAAAAmJLR0QA/4ePzL8AAAAJcEhZcwAAAGAAAABgAPBrQs8AAAAHdElNRQflAxoFLR9ZsHhLAABZ3UlEQVR42u3dd5hV1d328XsNQ+9FECnSRLBgwS4WEGPXGAUrmkQDxhQ1MZFEo5Ci4pvEkmgC+piIJQaMGntBUAR7QUFFVEBsoKD0PrPeP0Qy5Zwz58wpv7X3/n5yXc8TS5j7nNl73Xut3ZxXeDb4pVqmTVqhSm3WKus4ALBFS5XLqY3K1V7t1dRZ50ESuBCKepOfqzmarwVaoEVarNXWgQAgC820jbZXD/VUL+2sndWE4kYRGBZ1pX9bM/W83tDb2mj9PQBAnsq1g3bX/jpQu6kBlY2CMSnqD/yjelwztNz60wNAEbTQgTpCR6kfdY0CKGlRe/+SJulBvWf9qQGgBHroOA3XASqjsJGHkhX1HD9Rk7XQ+vMCQIl11ck6S3tQ1qinEhT1ev+gJmiK9ScFAEMDNUJnqS11jZwVuag/8n/RBK2w/pQAEICWOkcXanvKGjkpYlG/6a/RJG2y/oQAEJBynaTR2p2yRtaKVNTv+Kt0lyqsPx0ABMjpGP2Ws9bIUhGKepG/jJIGgIzKdKquZBkcWShwUa/1f9HvebIYAGShkc7T79WSskZGBS3qe/xF+tj6EwFAhHTRtRpGVSODghX1Yv8T3WP9aQAggo7R39SNskYaZYX5Y27x/ahpAKiXh7WLbg7hDUkIUgFm1Mv9D3W39ecAgIj7tm5WB+bVqCXvon7Sn63PrD8FAMRAZ03UUKoaNeS19O39OH8UNQ0ABfGZvqXRvpJFcFSTx4x6lf+u7rXODwAxc4zuUBvm1diq3kX9gT9G71qnB4AY2lEPqzdVjS3qufT9oj+AmgaAonhX++pZFsCxRb2K+j9+sD63Tg4AsbVMR+heqhqS6lXUd/pTtc46NwDE2joN161UNVSPov67P0ubrVMDQOxV6FxdT1Uj16K+1p+vSuvMAJAIXhfpWqo68XK66vtWf67YZgCgdJxu0nlcAZ5oORT17f67zKYBoMScbtY5VHWCZV3UD/jvqMI6LQAkULn+q6Op6sTKsqhf8wdrjXVWAEioFpquPajqhMqqqD/x++lj66QAkGCd9YK6U9WJlMVV32v8UdQ0AJj6TN/WOq7mTaQsivp8zbZOCQCJ97p+YB0BJuos6mv9ROuMAABJd+om5tQJVMc56hf8wdpknREAIElqpOe1J2eqEyZjUa/xe2qedUIAwFZ99LpaUNWJknHp+yfUNAAE5X1dbB0BJZZhRn2f/451OgBALQ/pGObUCZK2qFf4nfWJdToAQC3b6W21pqoTI+3S98XUNAAE6VNdah0BJZRmRv20H8J7sgAgUGWaof2ZUydEyqKu8HvqTetkAIC09tArKqOqEyHl0vcEahoAgva6brOOgBJJMaNe7nfQUutcAICMOmmeWjGnToAUM+prqGkACN4SXWcdASVRa0a91PfSKutUAIA6tdZ8tWNOHXu1ZtRXUdMAEAkr9CfrCCiBGjPqJb6n1llnAgBkpYUWqj1z6pirMaP+KzUNAJGxWjdZR0DRVZtRr/XbcyEZAERIRy1UU+bUsVZtRn0bNQ0AkfK57rCOgCKrNqPe2b9tnQcAkJMBeoMZdaxVmVHPpKYBIHLe1Eu8miHWqhT1zdZZAAD1cIt1ABTV1qXvFX47rbVOAwDIWQt9phYsf8fW1hn1vdQ0AETSaj1oHQFFtLWoJ1knAQDU07+tA6CItix9f+W31UbrLACAemmsJWrN4ndMbZlR309NA0BkbWDxO8a2FPXD1jkAAHl4xDoAisZ5SZv9NlpunQQAUG/t9LkasPgdS2WS9Bw1DQCR9qVeto6AIimTpCetUwAA8sRIHldlkjTDOgUAIE+M5HHlvDb7tlptnQMAkJdW+pKz1LFUJr1OTQNA5K3UbOsIKIoycQECAMTCi9YBUBRl0hvWGQAABfCmdQAURRm/WgCIB5a+48lV+jZaaZ0CAJC31vpKjsvJYqfsI2oaAGJhhT6zjoAiKFtonQAAUCALrQOgCMoXWicosGbqq77qqOZqqxZqaB0HQHA2abW+0hp9rnl6V+us4xTUAh1gHQEFF5OidtpVgzVEu6sbZ2gAZM37RZqlaZqqOfLWYQpgoXUAFEH5x9YJ8uR0sM7WcepAPQPImXPba3udIOkL/4Am6tmI1/VH1gFQBOVLrRPkoZN+pBHqQUUDyNs27hydowV+om7S59Zh6i3KIzrSKYvqr7W7rtN8/cZR0wAKp6e7wi3SeHWzDlJPy6wDoAjKovhrbaO/6n1d4JpR0gAKrrEb6d7X9WptHaQeojr1QiZly60T5MhphObqR64hJQ2gaBq5n7q5OkNRG2iWWwdAEZRtsE6Qky6aoomuU9T2HQARtK27wz2hztYxcrLeOgCKIFJFPUSvaAglDaBkhro3dKR1iBxstA6AIiiLyq/V6fd6UttS0wBKahv3sMZGZgk8SlMvZMs5H4W7BhvqVp0ZlT0FQOxM9Odqk3WILDhVMlLGjovC3f3NNUlHs/EBMDTFf0errENkwTNWxk4EirqZHtcgNj0Axp71R0TgyeAUdfyUWQeoSwPdQU0DCMBBbpLKrUMggQIvaqcJOpGaBhCEY92tkbmsDPEReFGP1vfZKwAEY4S72DoCEifoc9T7abp4AhmAkGz2h2qmdYgMOEcdPwEXdTu9pu3Z5AAE5iO/Z8DP1Kao4yfgpe+bqWkAAermbrSOgEQJdkZ9hB6jpgEE6mj/qHWENJhRx0+gRd1Yb6ovmxuAQL3vdw30BRgUdfwEuvT9S2oaQMD6uIusIyAxgpxRt9JCtaWoAQTsS98jyEeKMqOOnyBn1OdT0wAC186dZx0BCRHgjLqJ5qszRQ0gcEt8zwCf/c2MOn4CnFGfTk0DiIBObrh1BCRCgEV9lnUAAMjKCOsASITglr6313yVMaMGEAGVvoc+sg5RA0vf8RPcjPpMahpARJS5060jIAGCK+pjrAMAQNaOtg6ABAhs6buFvuR9WQAiY6NvpzXWIaph6Tt+AptRH0RNA4iQRu5A6wiIvcCK+lDrAACQk0OtAyD2AivqXa0DAEBOGLVQbIEV9Y7WAQAgJ4xaKLagLiZrpLVqwDlqABGy2TfXRusQVXAxWfwENaPuTU0DiJhy19M6AmIuqKJubx0AAHLWzjoAYi6oom5pHQAActbKOgBiLqiibmEdAAByxhQDxRVUUbO5A4geRi4UV1BFXW4dAABy1tA6AGIuqKIGAADVUdQAAASMogYAIGAUNQAAAaOoAQAIGEUNAEDAKGoAAAJGUQMAEDCKGgCAgFHUAAAEjKIGACBgFDUAAAGjqAEACBhFDQBAwChqAAACRlEDABAwihoAgIBR1AAABIyiBgAgYBQ1AAABo6gBAAgYRQ0AQMAoagAAAkZRAwAQMIoaAICAUdQAAASMogYAIGAUNQAAAaOoAQAIGEUNAEDAKGoAAAJGUQMAEDCKGgCAgFHUAAAEjKIGACBgFDUAAAGjqAEACBhFDQBAwChqAAACRlEDABAwihoAgIBR1AAABIyiBgAgYBQ1AAABo6gBAAgYRQ0AQMAoagAAAkZRAwAQMIoaAICAUdQAAASMogYAIGAUNQAAAaOoAQAIGEUNAEDAKGoAAAJGUQMAEDCKGgCAgFHUAAAEjKIGACBgFDUAAAGjqAEACBhFDQBAwChqAAACRlEDABAwihoAgIBR1AAABIyiBgAgYBQ1AAABo6gBAAgYRQ0AQMAoagAAAlZuHSAuPvHvaJ7m6VOt0TqttI4DREILNVcLddKO6qt+6uas8wAhoqjztNw/oql6Wh9YBwEir5sfrCE6Up0obKAKirreNvvHdLse0HrrIEBMfKSJmqhyHeFH6AQ1oa4BSZyjrqeNfqLfScdpEjUNFNhmPaxT1U1j/HJvnQUIAUWds0o/3vfU2XrPOggQY0s1Vj31e7+eskbiUdQ5muUH6Tx9ah0DSIDl+o120SNUNRKOos7BZv9rv5eet44BJMgHOkZn+FWUNRKMos7ax36IrlKFdQwgce7SQM2iqpFYFHWWXvB76FnrEEBCvaf9dTdVjYSiqLPylP+WllqHABJsvU7XH6lqJBJFnYV7/FFaZR0CSDivX2gMVY0EoqjrNNWfqU3WIQBIGqs/U9VIHIq6Di/7E7TBOgSALS7WbVQ1EoaizmiJP0GrrUMA2MprlF6hqpEoFHUGlf4sfWYdAkA1G3SKVlDVSBCKOoOr9YR1BAC1zNe51hGAEqKo03rP/846AoCU7tH9zKmRGBR1WhfwZiwgWD/VGqoaCUFRpzHJP2odAUBaH+lK6whAiVDUKXmWvYHAXa8vmFMjESjqlO7THOsIADJaoxusIwAlQVGndJV1AAB1+qtWMqdGAlDUKbzmX7GOAKBOyzXJOgJQAhR1ChOtAwDIyu3WAYASoKhr2ezvto4AICvPaj6L34g9irqW57TEOgKArHg9aB0BKDqKupap1gEAZG2adQCg6CjqWtjxgeh4WhUsfiPmKOoaNvkXrSMAyNoKzbaOABQZRV3DfG2wjgAgB3OtAwBFRlHXwE4PRMu71gGAIqOoa5hnHQBATihqxB1FXcNi6wAAcsLtlIg7irqG1dYBAORklXUAoMgo6hrY6YFoWWkdACgyirqGddYBAORkrXUAoMgo6hqaWgcAkJNm1gGAIqOoa2hpHQBATlpZBwCKjKKuoYV1AAA54eAacUdR17CtdQAAOelkHQAoMoq6hr7WAQDkZEfrAECRUdQ1sNMD0cI+i7ijqGvorcbWEQDkoL91AKDIKOoaGrp9rCMAyFob7WIdASgyirqWIdYBAGTtUDVw1hmA4qKoaxlsHQBA1thfEX8UdS0HcrsHEBFOx1lHAIqOoq6l3J1iHQFAVg5WTxa+EXsUdQojrAMAyAr7KpKAok5hLzfQOgKAOrXRMOsIQAlQ1Cn9yjoAgDr9VK1Y+EYCUNQpfYd7M4HANddPrCMAJUFRp+TcFdYRAGR0kTown0YiUNRpnOyOso4AIK3uGm0dASgRijqtG9TEOgKANP6i5synkRAUdVp93OXWEQCkNFzHU9NIDIo6g0t0hHUEALX01gTrCEAJUdQZlLnbtZ11CADVNNYktWY+jQShqDPaxj2qNtYhAGzldLP2pKaRKBR1HQa4e9XYOgSALf6sEdQ0EoairtNgd5caWYcAIGmMLqSmkTgUdRa+4x5VK+sQQMI5/VFXUNNIIIo6K0PcU9rWOgSQYE11t35OTSORKOos7eXe4GYtwEhfPa/h1DQSiqLOWkf3sMaooXUMIHFG6FXtRk0jsSjqHDRwV7jZGmodA0iQPnpUE10LahoJRlHnaEf3hCaqp3UMIAHa6UrN0ZGUNBKOos6ZcyPc+5qk/tZBgBjbRldovn7lGlPTSDyKul7K3DA3R89qpFpaRwFipoGG6jYt1BjHg0IBSSq3DhBdZW6QBula/6SmaqrekrcOBERcDw3WEB2pDhQ0UAVFnadm7gSdIOlL/7be1Tx9otVareXWsYBIaKkWaqFO6qsd1U9dKGggBYq6QNq5QRpkHQKAgSbWAapoah0ARcA5agDIS0hXqvCw4ziiqAEgLy2sA1QR0kEDCoWiBoC8tLMOEGgWFApFDQB52cE6QKBZUCgUNQDkZUfrAIFmQaFQ1ACQl84BnRnuax0ARUBRA0BenNvHOsJW+1oHQBFQ1ACQp8HWAbbopR48NCaGKGoAyFMoRT3EOgCKgqIGgDztrfbWESRJR1oHQFFQ1ACQp4buVOsIklrraOsIKAqKGgDyNsI6gKRT1JQz1LFEUQNA3vZ1O1tH0HetA6BIKGoAKIBfGP/8Q7Q/8+mYoqgBoADOVB/Tn3+p9ReAoqGoAaAAGrhfGv70/XQ48+nYoqgBoCDOkdUTysp0nfWHRxFR1ABQEGXuRqMhdaT2ZT4dYxQ1ABTIXu48g5/aWX+w/uAoKooaAArmT9q9xD+xTBPVjvl0rFHUAFAwTdwktSrpT7xCQ6npmKOoAaCAdnC3qkHJftrxusz6A6PoKGoAKKiT3I0l+kn76i6VMZ+OPYoaAApslBtTgp+yqx5Vc2o6AShqACi4K9x1RR5e99FUtaWmE4GiBoAiuMDdpoZF+9OP1TR1oKYTgqIGgKI4001RlyL8uWX6te5TM2o6MShqACiSg90sHVXgP7ODHtIfXDk1nSAUNQAUTQf3kMarfYH+NKezNEdHUdIJQ1EDQBGVuZFurs4pwGA7QM/oNteJmk4cihoAiqyDu8W9p5+qcb3/hAG6Ta/pIEo6kShqACiBXu56N1e/Vvcc/3dNNEyPapbOcg2o6YRy8tYR/mekxrMhAoi1Sj9dkzVVc+v8N9vqEB2jk9WGcTHhyq0DAECSlLlDdaikT/0zmqN5elcfa4Uqt/zTFmqnvtpR/bS/dhdzaEgUNQCY2M6dVuWv1vr1cjxpDClR1ABgrplrZh0BweJiMgAAAkZRAwAQMIoaAICAUdQAAASMogYAIGAUNQAAAaOoAQAIGEUNAEDAKGoAAAJGUQMAEDCKGgCAgFHUAAAEjKIGACBgFDUAAAGjqAEACBhFDQBAwChqAAACRlEDABAwihoAgIBR1AAABIyiBgAgYBQ1AAABo6gBAAgYRQ0AQMAoagAAAkZRAwAQMIoaAICAUdQAAASMogYAIGAUNQAAAaOoAQAIGEUNAEDAKGoAAAJGUQMAEDCKGgCAgFHUAAAEjKIGACBgFDUAAAGjqAEACBhFDQBAwChqAAACRlEDABAwihoAgIBR1AAABIyiBgAgYBQ1AAABo6gBAAgYRQ0AQMAoagAAAkZRAwAQMIoaAICAUdQAAASMogYAIGAUNQAAAaOoAQAIGEUNAEDAKGoAAAJGUQMAEDCKGgCAgFHUAAAEjKIGACBgFDUAAAGjqAEACBhFDQBAwChqAAACVm4dAABseL9cX2m5lmu5VmidVmm91mm1Nmmd1qf495uqiRqqhZqqiVqqqdqojVqrjdqqjZyz/jSIL4oaQAJs8p/oIy3SJ/pMX2ixlugLfS5foD/dqaPfRp20rbZRZ3XR9uqqLmpIeaMgKGoAsfS5f1/v6319oPlapMWqLOLP8lqiJZpT7e+VaVvfXb3UR33UR73VkdpGPVHUAGLjQ/+O5miu5ugdrTTOUqlP9ale2PrXrX0/7aL+2kX91Z3SRg4oagCRtsm/rdf1ul7XG+blnMkKvagXt/z3Vn537aE9tLt2YoEcdaKoAUTSPP+iXtSLmq0N1lFytlLTNV2S1FgD/L7aV/tqBwobabiCXU1RACM1nk0VQAbr/ct6Wi/oRS2zjlJg7bWf9tch2luNGQdRDTNqABGwzs/UdD2jl1LeOBUHy/SwHpbURPv6Q3SwDlBTChuSKGoAgZvvp2iKHtMq6yAlsl7P6BlJTXWgH6qhGkhdJx5FDSBI6/xMTdGDets6iNXn1xRNkdTLD9VQHamWFHZicY4aQGDm+yl6UFNiu8hdH000SMyvk4oZNYBgzPL/1mR9YB0jQOu3zK/7+GE6RbtR14nCjBpAAN7yk/VvzbWOERE9dLyGaRDjZUJQ1ABMLfCTNDGxZ6LzsZOG6RT1Z9SMPYoagJH3/d2apNnWMSJugE7RKerN2BljFDWAktvgH9AEPRXS8BNxAzVSZ6oZI2gslVkHAJAsc/1o31XDNYWaLqBXNUrbaZR/gy81hihqACWy3k/2h/v+Gqel1lFiaYUmaHft5Sf41dR1rFDUAErgLT/ad9FwTbEOEnuvapS6aJSfQVnHBkUNoKg2+3/5vf0uGqcvraMkxkpN0EHax9/tN1PXMUBRAyiaVf5630en6xXrIIn0sk5Td43xyynriKOoARTFYj/Gb68L9aF1kET7TGPVXRf4jyjrCKOoARTcG/4s311j9ZV1EEhapRvUW8P9S5R1RFHUAArI+0f8YX533a5N1lFQxSZN1r463D/uPXUdORQ1gIKZ4vfRMZpqHQNpTNGR2l2TqeqIoagBFMQMf4g/nMvGgvemhmt//yBlHSEUNYC8zfSH+YM03ToGsvSCjtcgP5WyjgiKGkBeXvDH+UEsd0fOTB2mQX46ZR0BFDWAenvTD/f76yHrGKinmTpEh/tXKOvAUdQA6mW+P9nvrsnWMZCnKdpHp/iFlHXAKGoAOVvjx/id9R/efxULXpO0oy7wK/l1BoqiBpAT7yf6Phqr9dZBUEAbdYP6a4KvpKwDRFEDyMFL/kCdrcXWMVAEn2qU9hFv3QoPRQ0gS5/4s/x+et46BoroVR2s4f5DyjooFDWALKz143w/3c5Z6djzmqydNNqv5lcdDIoaQJ0e8ztptFZbx0CJrNU4DdATVHUgKGoAGX3lR/mjeFll4izQERrul1LWAaCoAWQw2e+oCdYhYGSydtZEqtocRQ0gjU/9iX64vrCOAUOf62wd4xdR1qYoagApeD/B99P91jEQgEfUX+N8BWVthqIGUMscf4BGaZV1DARirUbrIL1FVRsptw4QL+v8Z/pKa7SG62MD0VAt1EbN1V4dnXWWqKjwV+u32mgdA4F5XgM1xv9SZexJJUdRF8BXfrqe0RzN0yLuMg1WG99X/bSfBqsfA00Gi/wI3iuNlDboV3pAd/he7EEl5kJqlpEaH7EN4CN/p+7R66q0DoIcbKejNUIHyUVsayuFyX6UvrIOgaC11o06g32npCjqeqr09+smTaOiI6unvqcfqV1ktrjiW+l/wY1YyMowTVAb9p2S4WKyetjsb/e76iQ9RU1H2AJdrh66xC8J6FDV0ot+T2oaWZqs3Xl5RwlR1Dmb4ffUWXrbOgYKYJWuUS+N8RsTPuRs9uP8QfrAOgYi5EMN1mi/KeF7TqlQ1DlZ5r/rD9Zs6xgooLUaq4F6LsEDzvt+kEZrk3UMRMxmjdOhWpDgPad0KOocvOT31m0hndRHgczRwRrjKxP5q33I760XrUMgop7T7rovkftNaVHUWfL+an+gFljHQJFUaKyOUtJeQOD9OH+CllvHQISt1EkandCD3NKhqLNS4c/Tr7TZOgaK6gntpw8SNOAs80dpNBdEIk9e43SsvkzQnlN6FHUWNvhTuR42ET7QQZqVkAFnlt9bj1uHQEw8qj30SkL2HAsUdZ02+hN0j3UIlMhnGqp3EjDg3MGJHBTUIh2kWxOw59igqOvg/UjmHYmyTN9SvF/qt9mP9iO01joGYma9ztGoxN/qWBwUdR1+rtusI6DEPtYxWhXb4eYTf7DGWYdATE3QEH0a233HDkWd0T3+WusIMDBH51pHKJJX/d563joEYmym9knMdR6lQ1Fn8IGP63CNukzShBgONo/7wfrMOgRi7hMN0kMx3HssUdRpVfoztMI6BMxcqPdiNthM8MdqlXUIJMAafVs3xmzvsUVRpzWe5zUl2jr92DpCAXk/xo/iSQAokQr9WBfwGJSCoajTWOp/Yx0Bxp7Qf2Iy0Kz3p2msdQgkzA0aprUx2YOsUdRpXKFl1hFg7mLF4e1Ay/xQ/ds6BBLoXg3R5zHYg+xR1Ckt9v+wjoAALNRd1hHy9r7fXzOtQyChXtT+mktV542iTun/aZ11BATh96qI9DAz3e+j96xDIMHma5BmRnofCgFFncJqz5O98bX39ZB1hDw85o/UV9YhkHDL9C09QVXnhaJO4R6tto6AYNxuHaDeHvQnsjKEAKzVcbqXqs4DRZ3CROsACMiDWhbJIeZuf5LWW4cAJEkbNVwTI7kfhYGiruVT/4x1BARko+6zjlAPN/sztMk6BLBVhb6v/6Oq64miruVJVVpHQFCetA6Qsxv9KLZiBKZCP9C1VHW9UNS1TLMOgMBMk4/U8DLO/1iRCoyE8PqZxrJp1gNFXQtFjeq+0GzrCDm4wo+2jgCkNUajqeqclVsHCM0yv8g6AoIzSwOsI2TF+wt1g3WIyGqv9mqv5morqZGaS2quRlv+2UatkbRamyR9pTVapqX60jpwRI3TBn+ts04RLRR1DXOtAyBA71oHyNJoajpLndVTPdRT26uj2qu9Oqi9ynIsj0q/VMu0TMv0uRZqoRZqAS8Rzcp1auKvoqpzQFHXEJUhGaUUja3it/4a6wgBa68B2lX91VM9tL2aFKAmylxHdazx99b7ryv7Hc3WG8y507paLfylVHXWKOoa5lsHQIA+sA6QhT/7K6wjBKeh+mtXDdAA7aouJamFJq6f+m39q0/8bL2h2Zqtd7hZrobL1MJfQFVniaKuYYV1AAQo/K3iVn+xdYSAtNS+OlCDdICamVZBF9dFR0qSNvk3NUMzNZW38m11kZr4UVR1VijqGlZZB0CAQt8qbvc/4IYsSb10kA7UgeovF1gBNHQDNVAXqNK/o5maqWe1wDqSOa/z1dKfHthvKkwUdQ085Ru1hV3U9/vvJ/zxJk11oIZqqAYGP+iXuZ21s0ZKmu+naIoeTfSIU6mz1NAPC/63Zo+iBiLtCX+qNluHMNNLQzVUR6pl5Ab7Xm6kRmqdn6kpmqJXreMYqdCZau6Pjtxvr9Qo6hpaWAdAgFpaB0hrmv+2NliHMLGbhmuYdoj4EN/UDdVQSfP8ZE3Sm9ZxDGzUMD3mD4r477HYeDJZDeEOybAT6lbxtv9OAl9kuZOu0Dua5X7tol7T/9PXXerecPN1nfa0jlJya3WsZnOJRUYUdQ2trQMgQGFuFZ/6I7XcOkRJ7aDLNUdvuTGuX2wquqqe7gL3qputy9THOkpJrdTxWkxVZ0BR19DLOgAC1Ns6QApr/Yn6yDpEyTTWMD2pdzXW7RzLiq5qF/c79557RSPVzDpKySzUsVpDVadFUdewo3UABCi8raLCn66XrEOUSD9drY81yQ11od10VUwD3Xj3icZrN+sgJfKqTlEFVZ0GRV1DeEMy7IW3VfxU/7WOUALN9D09p3fcJa5Dgir6f9q4kW6Wm6nvqql1lBJ4WD+zjhAsirqGDq6bdQQEZw/rADX80d9kHaHoOuoKfahb3f6JrOiqDnD/cIt0tbazDlJ0N+gG5tQpUdS1DLYOgMB01C7WEar5j7/EOkKR9dF1WqgxCZ1Hp9LBXeLm6zbtZB2kyC7SfVR1ChR1LRQ1qhsc1AMpX/Znxfo5ZAdqkubqAtc0oO88DI3dWW6OntSx1kGKqFJn6AWquhaKupahYoRAVUOtA1SxwB+jtdYhiuYYvawZbphrwC6YhnND3YPuhS2v+oijdTpRi6jqGijqWrq6g60jICCNdKJ1hK3W+2H6wjpEkRyop/WQ24uKzsK+7lH3fGxn1ot1gtZR1dVQ1CmMsA6AgByv9sGUx/kxfSb0AXpKM9whwXzPUbCfe9DNiOmJulkaZR0hMBR1CsPU3DoCghHOYdtf/T+sIxTBvnpAM90QSroeDnRT3bOK4wrg7bqZOXUVFHUKrdy51hEQiH7BLDC+4H9uHaHguuo2Pa/jKOk8DHLPuAfU0zpGwf1IM6nqrSjqlC5WY+sICMKvVBZEjSzxJ2ujdYiCaqYrNE9nJeppY8VynHtLVwf76pj62aTT9DlVvQVFnVJX913rCAhAL51uHUGStNmfok+sQxSQ0zC9ozHcglUwTd0lbq5GxmpA/0inajNVLYmiTmus2lhHgLk/qjyIKvm5nrGOUEB7a4Ymue5BfLNxsp0b717UAdYxCmiafm0dIRAUdRqd3G+tI8DYEToxiDK5y99gHaFg2ugWvagDgvhe42gvN0N/D/S1rPXxR93DnFoUdQbna6B1BBhqqhutI0iS5viR1hEK5iS9rXM4K11Uzo1yb+vb1jEKxOv7eoeqpqjTa+D+pVbWIWDmBvUOoFA2+DO0xjpEQWyrybrHdQ7gO42/7dx97gF1tY5REKs0XOsTX9UUdQY7uAnWEWDkFJ0bRKX8Um9aRygApxF6SycH8Y0mxXFujn4aiwF+jn5jHcFcHH6PRXSKO986AgzsqlusI0iSHvN/sY5QAD01TRNdO2q6xFq7690UbW8dowD+rCkJn1NT1HX4i4ZZR0CJddXDahFArXzhv6/oj0/D9Kp4OKiVwe7NgJ6tV1+VOlvLor8r5IGirkOZm6hDrEOghDroSXULoljO1WfWEfLUShM1ybUN4ttMqlZuopukttYx8vSpkv20SIq6Tk3cwzrKOgRKpLOmqF8QxfI3/4B1hDztp9c0IojvMumGudcj/0Tw+3VLgufUFHUWmrsH9D3rECiBfnpBuwVRLe/4i60j5KVcV2hGENfNQ5K2d1N1tRpax8jLhXo3sVVNUWel3N2iK9TAOgaK6ijNUBjPy9roz9Ba6xB56KpnNcY1COK7xNcauEvc0+piHSMPazRCmxJa1RR1lsrcGDdFna1joEjKdYUeCubN05fpdesIeThYL2u/QL5JVHWAe12HWYfIw8saYx3BCEWdg0Pd6zrVOgSKYDc9qzEujPdkSc/5P1lHqDenn+spbRvIN4matnGP6ULrEHkYpxcTOaemqHPSyf3LTdNO1jFQQM11hV4KaAa40Y9UpXWIemqhu/VHF8aLTJBaubvW/UvNrWPUU4V+oI0JrGqKOmeHulm6TTtax0ABtNBP9Z7GuEYBVcsf9JZ1hHraQc9reEDfJNI51b2i/tYh6mm2rrGOYMCF9ESFkRofmd28wk/S3zQjpK8POemt7+l8hXaP71t+T220DlEvR2iSWgX2bSK9FX6YnrQOUS+NNSuQWyhLhxl1PTVwp7npbr5+q935EiOmm87TDL2nS4N7FEelHxXRmv6+HqSmI6W1e0TnWYeolw36vioTNkNiRl0Ay/zTmq63NU+LrKMgrXbqq/7aT4O1Q7Bb2Q3+AusI9eB0ucYE+50ik+v9zyJ5RcRN+mGitjiKuqDW+CX6Squ1OtJ3wcZJQ7VQW7VQO20T/La1yO+iVdYhctZYt+r04L9bpHOPP0vrrEPkrJXeUtcEbXXl1gHipbnrZR0BkfWTCNZ0O92ngxM0YMbPya6LP0FfWMfI0Uqdp4esQ5QQp1eBINwVwWd799aL1HTk7e9mqKd1iJw9rMkBrQYXG0UNBGCZv9A6Qs76a7r6UNMx0NdNj+ANpz/VV4mpaooaCMBlkVt83F3PaDtqOia6uunazTpEjhYn6IGiFDVg7m1/i3WEHO2lKRG4PA/Z6+ie1n7WIXJ0k+YkZE5NUQPmLtJm6wg5OVhPBfMCExRKGzclYq/s2KyLrCOUCEUNGLvPP2EdISdH6jEebhJLzd0DOsI6RE6m6OFEzKkpasDUBv8L6wg5OUr3qyk1HVPN3H91pHWInPw8Ee+opqgBU9fpA+sIOThQk9WYmo6xxu5eHWodIgfv6q/WEUqAogYMLfFXWUfIwX56VM2p6Zhr6h7SIOsQORijxbGfU1PUgKFfaYV1hKztpofVkppOgObuIe1pHSJrKxNwmxZFDZh53d9mHSFrO+pxtaOmE6K1e0w7WYfI2i16I+ZzaooaMHNBZN5c1EfT1ImaTpBt3BOKypsLKmJ/mxZFDRh5yD9rHSFLnfSEOlPTCdPFPaFtrENkaZoej/WcmqIGTHj/W+sIWWqq+9STmk6g3u5hNbMOkaXL5GNc1RQ1YOI+vWwdIStlukP7U9MJtbe7LSIl8Yoeto5QRNH4HQAxUxmZ+fSf9B1qOsFOdldbR8jSr1UZ2zk1RQ0YmKQ3rCNkZaQupKYT7hfux9YRsjJb91tHKBqKGii5iojMp4/WjdYREIDrdLx1hKxcHts5NUUNlNydesc6QhZ21SSVM5+GGrg7tbN1iCy8pX9bRygSihoosU2RmE+30b08LhRbtHD3qY11iCxcoc2xnFNT1ECJ/TMCr+FwulV9qGlstYObGIG6eE93WkcoivC/eSBWNkbiNRyX60RqGtUc535lHSELY7QxhnNqihooqdu0wDpCnY7W5dYREKDf6gjrCHVaqLusIxQBRQ2UkPfXWkeoUw9NVBnzadRS5v4Vged//ymGzyijqIESeij4672b6n61p6aRUlt3j5pYh6jDHD1uHaHgKGqghP5oHaBO12g3ahpp7eHCv8Yi/L0sVxQ1UDKv+OnWEepwhH5kHQGBu0DHWEeow1N6PWaL3xQ1UDKhH+lvo3/KMZ9GRs7dqk7WIerwZ+sABUZRAyXyof+PdYSMnP5P21LTqFNH9w+FvaH8W4tiNaemqIESuU6brSNk9CMdF/boi2Ac5UZZR8hok/5iHaGgnAI67hip8QwUiKmVvrtWWIfIYCe9oqbsf8jSer+35liHyKCVFql1bLZnZtRASYwPuqbLdQc1jRw0cf9UuXWIDFbqFusIBURRAyWwyd9gHSGji7UHNY2cDHQ/s46Q0Q0xekEHRQ2UwIP62DpCBjvwyFDUwxj1sY6QwSI9bB2hYChqoARutg6QgdPfWPZGPTR1Nwd99XfIe11uKGqg6D7yT1pHyOAHOizk0RYBO9R9zzpCBo/G5iYtihooultUYR0hrc662joCIuzP2s46QlqV+qd1hAKhqIEiq/T/tI6QwY1qy3wa9dbahfw+uFtUEYs5NUUNFNmjWmQdIa3jdCI1jbwMd0dZR0jrIz1hHaEgKGqgyMK9pKVR8E8fRxT8WQ2tI6QVj7upKWqgqBb7R6wjpHWB+jKfRt76uXDfufaAPovB4jdFDRTVrdpkHSGNjrrUOgJi4gp1sI6QxmZNtI5QABQ1UETe/8M6Qlp/iNGzkGGrjfutdYS0JshHfk5NUQNF9JTet46Qxu4K+Q5YRM1I7WodIY35eto6Qt4oaqCI7rIOkNZ1asB8GgXTwF1vHSGtf1kHyBtFDRTNRn+/dYQ0vq1DqGkU1GB3nHWENO7VpogvflPUQNE8oa+sI6TkNMY6AmLoD4EWyjI9ZR0hT2F+r0AsTLIOkMZw7cZ8GgW3qzvROkIaoe6J2aKogSLZ4B+wjpBSA11hHQExNTbQSrlPGyK9+B3mtwrEwGNaYR0hpTPUn/k0imJnd4p1hJSWK+T319WNogaK5N/WAVJqwGNOUERjVW4dIaVoL35T1EBRrPcPW0dI6Xs8NhRFtIM70zpCSvdrXYQXvylqoCge0UrrCCk01GXWERBzvwlyTr1Kj1tHyANFDRRFmAvfp2l75tMoql5umHWElKK8+E1RA0WwNtCF74usAyABfm4dIKUHI7z4TVEDRfCU1lhHSOFw7c58GkU30A22jpDCak2zjlBvFDVQBI9aB0gpzJkO4ifMLS3MvTIbFDVQBCFeuLKLvmUdAQlxtHa2jpBCmKejskFRAwU318+3jpDCz+VY+EZJOBfi1RAL9H5Ez1JT1EDBPWYdIIVOOtU6AhLkTHW2jpBCVBe/KWqg4EIs6h+qCfNplExjN9I6QgoUNQBJ0jo/3TpCLWX6nnUEJMw5amAdoZanI3qLFkUNFNg0rbOOUMtR6s58GiXVzR1uHaGWdQrvIDobFDVQYCEur/3AOgASKMStLsTTUnWjqIECC28o2FZHW0dAAh0f4AVlIR5G142iBgrqPf++dYRavq+GLHyj5MrdCOsItbyr+RE8S01RAwUV3gvqy3SOdQQk1LkK7whxinWAeqCogYIK72KVIeoV3miJRNjBHWIdoZaZ1gHqgaIGCupZ6wC1nGkdAAkW3tZHUQMJN89/ah2hhkY63joCEuw7amQdoYYP9FnkzlJT1EABPWMdoJYj1ZaFb5hp6w6zjlDLc9YBckZRAwUU3hnq4dYBkHCnWAeoJXqL3xQ1UEAzrAPU0ETHWUdAwp2oJtYRaqCogQT73C+0jlDD0WrFwjdMtXKhvQf9da2N2FlqihoomBesA9TCwjfshbYVbtLL1hFyRFEDBfOSdYAamukY6wiAjmfxO08UNVAwz1sHqGGwWrDwDXMtg3vsCUUNJFSlf8U6Qg1HWgcAJElHWQeo4XlVRuosNUUNFMg8rbSOUANFjTCEtiV+pQ+sI+SEogYK5HXrADXsoD4sfCMIO7re1hFqmGUdICcUNVAgoRV1aMuNSLIjrAPUENremhlFDRRIaLt+aMuNSLLQtsbQ9tbMKGqgQGZZB6imiUK70hZJNkSNrSNU85p1gJxQ1EBBfOSXWkeo5hA14ww1gtHcHWwdoZrPI/UOLYoaKIg51gFqONQ6AFBNWEUtvWUdIAcUNVAQoe32B1oHAKoZZB2ghtD22EwoaqAg3rYOUE1DDbSOAFSzrxpZR6gmrD02M4oaKIiwdvuBnKFGYJq63awjVBPWHpsZRQ0UgPdzrSNUw8I3whPWVsnSN5AwH2uFdYRqDrAOANQSVlF/FaHrvilqoADmWQeogaJGeA6yDlDDe9YBskZRAwUQ1iP++2hbzlAjOJ1cL+sI1YS112ZCUQMFENYuv7d1ACClsLbMsPbaTChqoADetw5Qza7WAYCUwtoyw9prM6GogQIIa5cfYB0ASImirh+KGiiAsBbRwhoOgW+EdQhJUQMJstSvsY5QRRt1s44ApLS92lhHqGKFVkTkBi2KGsjbR9YBqhkgxzXfCJJzO1tHqGaRdYAsUdRA3kIraiBUYZ2WCWvPTY+iBvIW1u4e1lAIVBXW1smMGkiMj60DVLOTdQAgrbCWvsM6xE6PogbyFtbu3tM6AJBWWFtnWHtuehQ1kLdPrQNU0VidrSMAaXUJ6q3Ui60DZImiBvL2uXWAKrZXGdd8I1gNXEg3Dy6xDpAlihrIW0i7e1hLi0BNPawDVBHSIXYmFDWQp83+S+sIVfSwDgBkFNKh5BeqjMQjTyhqIE9fqNI6QhU9rAMAGfWwDlBFhZZZR8gKRQ3kKazlsx7WAYCMQppRh7b3pkNRA3kKaeGbokbowirqsPbedChqIE9fWQeohpuzELZtrQNUE9bemw5FDeRpuXWAatpbBwAyCmsLXW4dICsUNZCn5dYBqmisFtxFjaC1ciE98mS5dYCsUNRAnlZYB6iig3UAoE4hzalZ+gYSYbl1gCpCGgKB1EI6nFxuHSArFDWQp9XWAaoIaQgEUgvpcHKNdYCsUNRAntZaB6iCokb4QtpKQ9p706OogTytsw5QRUhzFSC1kLbSkPbe9ChqIE8hHZO3sQ4A1KmtdYAqWPoGEiGkom5iHQCoU0hbKTNqIBFCKurG1gGAOoV0H3VIe296FDWQp43WAaoIaQgEUgvpcDKkvTc9ihrI02brAFWENAQCqYV0OBnS3pseRQ3kqcI6QBUhDYFAaiEdToa096ZHUQN5CmlXp6gRvpC2UmbUQCKEVNQhzVWA1ELaSkPae9OjqIE8hbSrhzRXAVILaSsNae9Nj6IGYoQdGuFrYB2gCm8dICvs10CeQtqJonGzCZJtg3WAKhpaB8hKSGMMEEkhzQ8oaoQvpK00pGX49ChqIE8UNZALZtS5oqiBPIVU1CENgUBqIR1OUtRAIoRU1CENgUBqIR1OsvQNJEJIx+QhDYFAaiEdToa096ZHUQN5amodoIqQhkAgtZAOJ5lRA4nQzDpAFSENgUBqIR1OllsHyApFDeQppKJeZR0AqNNK6wBVRGNGHY3DiQiY69/SPL2rT7Rca5jXSGqr5mqnvtpR/bSHmjrrPMUTUlEvtQ4A1GmZdYAqQnrueHoUdZ4+9/drmp7WYusgQWus/fxgHaO9YlnXIRV1SEMgkFpIh5NtrQNkhaKutw3+v7pdj0XkNWm2NugZPaMx6u9HaIS6xqyuQyrqkIZAILWQDidbWQfICueo62WNv9730Sl6iJrOyTv6tXrpLD83Gk/Cz1Ib6wBVhDQEAqmFdDgZjRk1RZ2zzf5631MX6mPrIBG1SbdrF43wn8amrFtbB6gipCEQSC2krbSNdYCsUNQ5esUfoAv1hXWMiKvQHeqrMX5jLMq6jXWAKlYqHt8p4muDX20doQpm1LGz0V/k99HL1jFiYo3G6kB9EINaaWMdoJovrQMAGYV1eqaNdYCsUNRZW+QP1XURec14VLyiPXV35L/SNtYBqmG1B2ELaeE7rBNX6VHUWZrud9Pz1iFiaKVO06XeR7qsw1o8+9A6AJBRWFtoG+sAWaGos/KAP1LLrUPE1pX6rjZHuKq3sQ5QzULrAEBGC6wDVBPWYXY6FHUWJvrvaJ11iFibqOERruqO1gGqWWgdAMhooXWAatpZB8gKRV2nB/05qrAOEXv36XuK6gJ4c9fcOkIVC60DABmFNKNuH5GHG1PUdZjuT+GhJiVxh0ZbR6i3TtYBqlhoHQDIKKSi7modIEsUdUYf+5NY9C6Za3R7ROfUIRV1SMMgUNtC6wBVdLEOkCWKOoPN/rTAbiWIu/P1TiSrOqSz1F9qRSS/QyTDV36FdYQqKOoYuFwzrCMkzGqdFskna4W1u4d1+wtQVVgrPix9R94c/0frCAn0hqL4rXezDlDNXOsAQFrvWgeoJqxD7PQo6jS8H6VN1iES6fdaELk5dVjH5bOtAwBphbV1hrXnpkdRp3GbnrOOkFDr9HPrCDkLa0Yd1lAIVPWmdYBqmFFHWoW/0jpCgt2n1yI2pw6rqMMaCoGq5lgHqIaijrR/6T3rCIk2zjpAjroopKcmLNTKiB3oICmW+0XWEapoq7Yh7bgZUNQpeH+1dYSEu0fzIlU1jV1n6whVeBa/EajZQb1/cEfrAFmjqFN4Xm9ZR0i4Sv3DOkKO+lgHqIaiRpjCOi1DUUfaROsA0O2qCOnQu069rQNUQ1EjTGFtmRR1hG3wk6wjQJ/oaesIOQlrRv26dQAgpTesA1TT1zpA1ijqWp7VV9YRIOlh6wA5CWtG/ZrWR2o9Asmwzr9mHaGaftYBskZR1zLNOgAkSVOtA+QkrBn1Br1qHQGo5WVttI5QRVlgh9eZs6KGaBVEfL2pLyI0K+wb1A1a0kzrAEAtYT1EqoeahLXTZkBR17DBv2IdAZIkr+etI+SgpQvr0QkUNcIT1kuOonMpGUVdy/vabB0BW0Tr5RI7Wweo5jn5CK1HIAm8D+vQeyfrADmgqGuIVjnEW1jv2alLf+sA1SzVPOsIQDVv60vrCNUMtA6QA4q6Boa3cFDU+WDxG2EJbYukqCPsC+sA2GqpdYCchLaQFtb5QCCsom4Z2J0amVHUNayyDoCtVloHyMkugV33/QRnqREQ75+0jlDNHioLa4fNiKKuYbV1AGwVrYOmNq6HdYRqPgnshYJItln6zDpCNVFa+Kaoa1lvHQBbrbMOkKM9rAPU8Kh1AGCr0LZGijrSmlkHwFYtrAPkaDfrADU8Zh0A2Cq0rZGijrSW1gGwVdR+F6HNqGdoBWepEYSV/gXrCNW0iNALOSSKupaolUOcRe13sbt1gBo28ThcBOIJbbKOUM2ekbqUjKKupbN1AGy1nXWAHHVz21pHqCG05UYkVWhb4sHWAXJEUdcQpee/xl30fhf7Wweo4VFu0UIAvKeo80NR1xC9coiv6P0uDrAOUMNHesk6AqDn9Il1hGrKtZ91hBxR1DX05LrvYIT2rK+6hVbU0iTrAEBwW+FAtYzUGWqKupYGLrzBNpkaBbeQXLeBamwdoYZJqmTxG6Yq/X+sI9QQtYVvijqFwdYBIEnaV80jdtQrNXZ7Wkeo4eNIvdUbcfRsYAvfFHUsDLEOAElRPWAKbz0mtGVHJM2/rQPUUBbgXlp3ZtSwj7pZR4Ckk6wD1Et4y/WTVMHiN8xU+HutI9QwQO0it1ZHUddS5s6wjgDtrAGR25mkEGfUi3nhJQw9rSXWEWqI4lodRZ3CWdYBoO9aB6inzq6ndYRa7rYOgAQLb+s7yjpAPVDUKfR3h1hHSLhmET5YCm9O/S+tZfEbJtb40K6RaB7BS8ko6jR+bR0g4UaqYyQXvqUQi3qFJltHQEL9WyutI9RwmBpHcGyhqFP6ltvbOkKCNdbF1hHycKh1gBRusQ6AhLrZOkAtR1sHqBeKOo0/WAdIsPPVJYLHvN/YyXW3jlDLDL3N4jdKbk5gL7eUpCOtA9QLRZ3G4e5k6wgJta2usI6Qp29ZB0jh/6wDIIHCW8nZRdtHchJAUad1g1pZR0ika9U6krvS/xxhHSCF27SBOTVKaoO/0zpCLdFc+KaoM+js/p91hAT6tk6NeE1LQ1VuHaGWZbrfOgIS5j9aah2hlijemiVR1BmNdGdaR0iYbgEuluWujdvHOkIKN1kHQML83TpALe11oHWEeqKoM7pJfa0jJEgjTVb7yM+npTDPUk/Xiyx+o2Re9s9aR6jlRDWM6PhCUWfU0j2iba1DJITTzdo3ortRTWFeWXqtdQAkyDXWAVIYZh2g3ijqOvR2j6uNdYhE+JPOiklNS3upvXWEFO7RfObUKIkF/j7rCLW0DfIZB9mhqOs0wN2vltYhYm+sLopNTUsN3GHWEVKo0F+sIyAh/qwK6wi1nKhGkR1jKOosHOJmajvrEDHWQDfp8sjuQqmFeIuWdLOWMadG0X3p/2kdIYXoLnxT1Fna1T3DZWVF0lz/1g9jVtPSEQrxI62JxVX1CN3ftdo6Qi1tNcQ6Qh4o6iz1ca/odOsQMdRPz+ukEDstT13cvtYRUvqLNjKnRlGt9yGeYjkhwgvfFHUOWro73QTOVheQ00i9ql0jvPtkEuYjaD9hTo0im6DF1hFSiPLCN0Wdox+4dzXCOkRMDNB0jXfNYlrT0klBLn5Lv9c65tQomvU+xBuzOulw6wh5oahz1NlNdE8qzGXN6Oiiv+hVDQqzyQqkh9vLOkJKn2m8dQTE2F/1iXWEFEZE9lEnX6Oo62Goe8E9GeF78mz11N/0gX7syiO942TjJOsAaVyp1cypURRrfJhvSIj6OihFXU9D3TT3jq5QL+sgEdJUw/SA5uk81zj2JS1JwwNd/P6C536jSK7X59YRUthLA8LcFbPmFNCx9UiNj9zXWelf1VRN1UytsY4SrAbaXUM0WIcovmekUxvoX7OOkFJ7zVerhP0uUHwrfC99aR0ihb/oxxHf2sN7H1/ElLm9tbcuUYX/UPM0V4u1XKu10TqWOac2aql26qu+6qsmEd9N6uskhVnUy3SDLrMOgdi5NsiabqRTrSPkjRk1UDTv+VAfk9Na89SRvQ0FtNj31SrrECmcpHsiv6Vzjhoomh3cbtYR0ljBjBoF9usga1o62zpAAVDUQBGF+dgTSbpVswJaTUPUvepvs46QUhcdZR2hAChqoIhODfTKb6lCF1pHQGx4f6EqrUOk9APF4UZQihoooj7uIOsIaT2je5hToyDu1gzrCCmV61zrCAVBUQNF9T3rABn8TGupauRtnf+VdYQ0TlSXGMynKWqgyIaplXWEtD7StdYREAPj9KF1hDR+aB2gQChqoKiau1OsI2RwlRYyp0Ze5gf62FCpf2we9ExRA0UW8uL3mtjMOWDlh1prHSFtMheLhW+KGii6/d1O1hEyeEx3MKdGvf3TP2EdIY0WOss6QsFQ1EDRhTynli7SUqoa9fK5v9g6Qlqnq3VM5tMUNVACI9TQOkIGS3WRdQRE1AVaZh0hDRer5wRQ1EDRdXJHW0fI6A49yJwaOXvU320dIa1j1T8282mKGiiJsBe/pR9rNVWNnKzxP7KOkMHPrQMUFEUNlMAx6mIdIaNFCvdcI8J0kRZYR0hrLx0So/k0RQ2URLkL/Tao8fovc2pk7X5/s3WEDOI1n6aogRL5oZpZR6jDufqMqkZWPvU/sI6QwfYBv7WufihqoCTauTOsI9Rhqc6Wp6pRp0p/tpZah8jgwli8MasqihookQuCfeXlN57U9dYREAF/1hTrCBm00vetIxQcRQ2UyM5uqHWEOo3Wm8ypkdEsf5l1hIx+pFahHxHnjKIGSuZC6wB12qDTtY6qRlpr/RnaYB0ig+axfHwPRQ2UzFHqZx2hTm8p5MuEYO18vW0dIaNR2iZ282mKGigh535sHSELd+pG5tRI6Xp/m3WEjBrrZ9YRioKiBkroe2pnHSELF+lZqhq1PO9/aR2hDueoSwzn0xQ1UFLN3DnWEbKwScP1KVWNahb7k7XROkRGDfUL6whFQlEDJfVjNbKOkIXFOk2bqGpstcmfrE+tQ9RhhHrEcj5NUQMl1t2dbR0hK9MV+jInSulnmmkdoQ4NdIl1hKKhqIES+1XQb6f+n+v0T+bUkCT9n/+rdYQ6naq+MZ1PU9RAyfV0I6wjZGmknqSqoWn+fOsIdWqgsB/Dkh+KGii5S1VuHSErm3QyTypLvLf8dwK/iEySzla/2M6nKWrAQK/gX9DxjZU6Wh9T1Qn2mT9ay61D1KmhLrWOUFQUNWDgNxGZU0uf6AStpqoTaq3/thZZh8jCSPWK8XyaogZM9HanWUfI2ms6RRVUdQJV+NP1knWILDTRaOsIRUZRAyYuVQPrCFl7RD/mTdWJ4/15+q91iKycr66xnk9T1ICRHd0p1hFy8PdYvpMImVyiW6wjZKV5jO+f/gZFDRi5LFK73/Uay5w6QS73/886QpYuVMeYz6cpasBM/8hc+/21MfoTVZ0Q1/jfWUfIUjv93DpCCVDUgJmr1Mw6Qk5+ob9R1Qlwk4/OYvKlahv7+TRFDRjq4i6wjpATrx/p/6jqmLvd/8Q6Qta214+sI5QERQ0YGq2O1hFy4jVKd1LVMXaH/54qrUNk7bdqnID5NEUNmGrlLreOkKMKjdBfqOqYGu/PVoV1iKwN0JnWEUqEogZMjdJO1hFy5HUBl5XF0l/9DyM0m5auUVki5tMUNWCs3F1pHSFnXhdrNFUdM+P8TxSlX+qhOiIhNU1RA+ZOcIdZR6iHcfql52llceH9xT5aj+F0+qN1hBKiqAFzVyuKU4P/p5+okqqOgUr/Q/3JOkSOhmtgFHeaeqKoAXN7udOtI9TLjTpZa6nqiFvvT9N46xA5aqQ/WEcoKYoaCMAf1NQ6Qr3cp8P0OVUdYUv8IZpkHSJnF6l3gubTFDUQhO1dVF98/4L20ztUdUS97w+KxIssq+uoX1lHKDGKGgjCLyJ3m9Y3FuhAPU1VR9BMv7/esw5RD79T60TNpylqIBCN3N8jeUmZJH2lI3QHVR0xk/xQLbUOUQ876fvWEUqOogYCcZA72zpCvW3UWbrUV1DWEVHhf+VP1XrrGPVyrcqjekRbbxQ1EIw/qoN1hHrzulJDubAsEpb5o3V1pB5u8j/H6FuJq2mKGghIe3eVdYS8PK299FI0x/8Eed3vrSesQ9RTucZZRzBBUQMBOUeDrCPk5SMdon9S1QH7P3+AFliHqLfztHMC59MUNRAU5/6uhtYh8rJe39Mov5GyDtAGf4E/N6JnpiWpncZYRzBCUQNB2dn9zDpC3iboIL1PVQdmnh+kG6xD5OV3ap/I+TRFDQTncvWwjpC3l7SHbqWqA3Kz31OvWIfIywCNso5ghqIGAtPM3R6DHXO1ztFJfhllHYDl/jQ/UmusY+TpejVI6HyaogYCNMj9xDpCQdyrXfQYVW1sqt9Fd1uHyNtwHZrYmqaogSBdpX7WEQpisY7RJVxaZmaD/4U/XJ9Yx8hbU11jHcEURQ0EqKm7M+JXf3+jUtdoT71AVRt4zg/UH1VpHaMALtH2CZ5PU9RAoPZ0o60jFMxbOkCj/CrKuoTW+tH+YL1lHaMguuli6wjGKGogUL/RntYRCsZrgnbRI1R1iTzo+2mcKqxjFMhhap7o+TRFDQSrobtDTa1DFNAiHaPhnqeBF9sSf5Y/Xh9Zxyigf2p0wrcaihoIVn/3W+sIBTZZO2sCb9kqmgr/N7+TbreOUXDjNCbR2wxFDQTsZzrEOkKBLdUo7arHEz3sFss0v6fO15fWMYpibKJn1RQ1ELAyd6taWYcouHd0pIb5BQkeeAvvA/8dP0RvWscooiTPqilqIGi93C3WEYriHvXTBX5lYofeQlrjx/hddJ91jKJL7qyaogYCN8z92DpCUWzUDeqvm/2mhA6+hbHJj/d9NDbC78TKRVJn1RQ1ELw/a3/rCEXyqUZqB03wmxM5/Oar0k/2O+k8LbYOUkLJnFVT1EDwGrq71d46RNF8qFHqy7XgOar0k31/Ddf71kFKblwCq5qiBiKgu/un4vzMhwUapQGa6CsTNwTXh/cP+j01XPOsgxhJXlVT1EAkHOsuso5QZG/rbO2pOzhnndFGf5vfTcfrDesgppJ2rpqiBiJinA60jlB0b2iEumuM/ypRw3C2VvnrfR99V7OtgwQgWeeqKWogIsrd3epgHaIEFmusttcFflGCBuK6febH+O66MFaPBs1PkhbAKWogMrq62xKyy67SDeqjM/3ziRmKM5npT/fdNVbLrYMEJjkL4MnY64GYONqNtY5QMpt0pw5Qfz/Of5GQ4bi25X6C390P0r+02TpKkJKyAE5RA5Fyqc6wjlBSczVa3TTcT/E+EUPyN7yf4Uf57TQq4ZeN1SUZC+BOAX3IkRof5ztQgIJY7w/Vi9YhDPTR93WaeiRgjFjg79Ktmm8dIzKu0JiYbxUUNRA5i/0+ib2oaCcN0wj1julI8bH/jybruZCG5Ui4RFfHdIv4GkUNRNAsP0hrrEMYGqgRGqbtYjReLPX3aiIVXW/xrmqKGoik+/zJqrQOYapMg3S0jtKASI8a3r+hx/SIZib8t5m/OC+AU9RARP3BX2YdIQgddYiO1XFqG7HRY42fqof0aGJPYhRefGfVFDUQUd6fpTusQwSjXAfoCB2kvdUk8FFknX9Z0/W4XuCWq4KL66yaogYia70fouetQwSmXLvpQA3SIeoY2GjyuX9Rr2qmZiTk3dE24jmrpqiBCPvCD0rsO5Tq0lcHaE/tqgFqZziufOnf1Gy9puf4PZVIHGfVFDUQaR/6QfrYOkTgumpXDdCu2lU7qnEJxpgNfq5ma7be1Gx9Yv3hEyh+VU1RAxE3zx+kz61DREZb9aryn+4qL8iY85Wfr//950NVWH/MhIvbAni5dQAA+enrHvCHJfqu6lx8pVf16ta/aqD2vr3aq706qL22UXu1UEuVq4FaSWqqJlv+vfVaJ2mlKrRZq7Ray/SFlmrZ1v9QzGEZpyY+TrNqihqIvH3dA/5obbCOEUEV+pzViFgaq/U+PrNqXsoBxMAQ9y81sA4BBCROr+ugqIFYONH91ToCEJT4VDVFDcTEeQl6VzWQjbhUNUUNxMbl7qfWEYCgjNOYGFQ1RQ3EyHW6wDoCEJSxMZhVU9RAjDh3nfuVdQggKNFfAKeogZi50l1qHQEIStSrmqIGYuf37jfWEYCgRLuqKWoghn7rrrCOAAQlylVNUQOxNMZdbR0BCEp0q5qiBmLqEjfOOgIQlKhWNUUNxNYv3VXWEYCgRPO+aooaiLHR7lbevANUEcX7qilqINa+5/6jZtYhgIBEbwGcogZi7ng3TdtYhwACErWqpqiB2NvHPa8+1iGAgESrqilqIAF6u2e1p3UIICBRqmqKGkiEbd0zOtI6BBCQ6FQ1RQ0kRAv3X51hHQIISFSqmqIGEqORu12/tA4BBCQa91VT1ECCODfO3cXtWsBWUbivmqIGEuY0N1M9rEMAwQh/AZyiBhJnd/eiDrYOgRhorh2sIxRE6AvgFDWQQB3dU7rEOgQibie9oJkaYB2jIMJeAKeogUQqd1e729XUOgYia4Re1i5uGzclJlUd8gI4RQ0k1pluhrpbh0AEtdbdmuiaOUnaxk3RrtaBCiLcqqaogQTb0z2v/axDIGL20Ws6xf3vr7dxT1HVRUVRA4m2nXtWl8jl/wchEZx+qhnqVWODoaqLi6IGEq7cXe3uUzvrGIiAnnpK17uGKY7r4lTV4V0BTlED0Alulg60DoGgOY3UmxqcdvElPlUd3hXgFDUASd3cNI1mQEAafTVd412LjOdI4lPVoc2q2S8BSJIauqvcDPWyjoHglGmkXtOgLC5kiE9VhzWrpqgBbLW/e10jrEMgKDvreY13zbO83jA+VR3SZWUUNYAqWrmJ7k61sY6BIDTVGL2mfXK6KWAbN0W7WAcviHAWwClqADWc7t7Rt61DwNyxektXuEY537vX0U2Nyaw6lAVwihpALdu6+9wktbeOATP99JgedD3reYM9C+CFRVEDSGmYm8O8OpHa6jrN1hF5PQWHqi4kihpAGl/Pqztax0AJlWmE5uoCV573w+qo6sKhqAFkMMy9o3N4xGhCHK9Zmug6FujXzWVlhUJRA8ionbvFTddO1jFQZAfqGf3X7VrQYzIuKyuMoIp6s3UAACkNcq/pSjW3joEiOUDTNMMdXISFk23cFO1s/fEKwnJWHVRRr7EOACCNxu5Xbp5GsAgeO7tokma6Q4v2i+3opjGrzlNQRb3KOgCADLZzE2OzlAlJ2lOT9aaGFfnoi1l1vihqADk41L2mv6mTdQzkyekITdGr7mTnSrBI0tFNjUlVjzWp6qCK+kvrAADqVO7Ocx/oarWwDoJ6aqhhelGPucNKeB6jo5sWkyvALRbAncxv5f6fplqtMk6BAZHwsb9Mt6vSOgZy0lI/0IXqZjLOLvGH6S3rL6AgrtCYkn6DQRW1tFDbU9RAZMzxv9F/wxpEkFZfjdQ5amM4xi7xQ/S29ddQEKWt6qCWvqV3rQMAyMEu7j43S8OsY6AODXSsntRc/dxZ1rTUiQXwegmsqOOxLAIkyQA3yT2tQ6xjII0e+oM+1oNuaEkuG6tLRzclJg/PKeUV4IEV9TPWAQDUwyHuaTdd37KOgWrKdbwe1gf6tds2gIr+Ric3NSZVXborwAM7R91GS9UgoE0KQC5m+St1T1iDSkIN1Aidqk6Bjqaf+8M0xzpEQVyiq0vwHQdW1NLL2ivQTQtANmb7P+lf2mgdI7F21Ok6Q70DH0e5rCwXwRX1b/WbwDcwAHX51P9F4/WVdYyE6axTdEZkpjpUdfaCK+od9K5CuOQBQH5W+1t1o+ZZx0iEPvq2vq39I/YcCqo6W8EVtfSC9o3UxgYgvRn+Bt3Hm/GKZicN03EaGNExk3PV2QmwqH+kv0Z0owOQykL/d/1TS6xjxEoTDdIJOsHoGWOFs8QP1jvWIQqimLPqAIu6lRaqbcQ3PgDVVfhpmqD7tck6SOT10lAN1ZFqGZNRkll13QIsaul3uiwmmyCAqj71t+k2nkBYLx11uA7Xt9Q5dqMjs+q6BFnU7bUgNkeLAGp6xd+lf+tT6xgR0VmDdJAO1oAYX2a72A+hqjMIsqilq3VJbDdJAFKFf1p36X5ebpvWDhqkgzVIfRIxFlLVmQRa1C31jrokYvMEkmyzf1r36n59Zh0kGC21p/bWvhqkkB77WQpUdXqBFrV0iu5O2GYKJFWlf17365GY3FNbH421m/bW3tpL/SN2L3QhUdXpBFvU0hM6PLEbLJBEH/pH9Iimaq11kBJpowHaVQO0p3ZTQ0Y7UdXpBFzUXfW6OrDxAgmz3j+naZqql2L5mJQG6qtdtZsGaFdtz/hWC1WdSsBFLR2lh2N8nSOATFb76XpaM/WqNlhHyVML7ai+2kk7akftqMaMaRkt9oM11zpEQRSuqoMuauka/YKNGki0Df5VvaCZelGfWEfJWiP1VC/13lLN3RnFckJV1xR4UTfQJH2HjRyApCX+Nb2m1/WaFlhHqaW9eqiXequ3equXuiX4krBCoKqrC7yopaZ6XAexyQOoYqWfqzmaq7f0jj5UZcl/fjt1UXd1VVd1V1d1UXc1ZZQqKKq6quCLWmqrZ7QrOwGAlDb6hZqv+ZqvBfpEH2tJwS9Ca6su2l5dqtRyM0akovvMD6Gqt4hAUUvt9KAOYMcAkIVKv0Sf6VMt05f6csv/Xa0NWq71WqcVKebfzdVIUhu1UAu1UBu1VFtto47qoA7qoO3UnNHHBFX9Ded8BJpazTVZR7GzACiYDX6t2nBfSdCo6q+5Rn6j9SfISkPdqB+wSwFAgizxh+kt6xAFkc9LMMsaWafP0iaN1Ml+RRSm/wCAgujkntLO1iEKYpxG17u/yhpbp8/Bf7Sf3qCqASAxOrmntJN1iIKof1VHqqiludpbF/vVlDUAJEQnNzXhVV3Wxjp5jjbpT+qvST4S18ABAPKW9Kou62Cdux4+1inaTRN9BWUNAAmQ7Koua2+dup5m62ztovF+OWUNALGX5KqO5Iz6G3N1njpruH/Qb6CuASDWklvVZV2tE+dpvSbreLXV4f4q/4JfT2EDQEwltardbf5s68QFVKbu6qu+6qwWaqkW1nGArVqruVqojbZTQx7cA9TbEj9Eb1uHKIjsH4HipvuDrdMCCdJQPdVPu+lQHaAmVDaQs+RVtVvku1tnBRKpiQ7UaTpZralrICdJq2pX6dtopXVWILGa6gRdqH0payAHyarqMud2sc4JJNg63a39dLh/mgshgawl67KyMmmAdU4g8aZosI7zCyhrIEtJqmqKGgjEQ9pFV/rNlDWQleRUtfN6zQ+0Tglgi330b/XgjDWQlWScq3Zem307rbLOCGCLDrpdR1LVQFaSUNVlUrnb1zofgK2W6lhNYAEcyEoSFsDLJGmQdT4AVVToPF1FVQNZiX9Vl0nS4dbpAFTj9Wv9gaoGshL3qnZeUoXvpGXW+QBU4zRB53KuGshKnM9Vl0lSAzfUOhmAGrzO08PMqoGsdHJPaAfrEAUxTmNr7PdlX/+/o62TAailQmfpQ6oayEoXN139rUMUxBj9pdp+777+q+V+W22wzgagln30rBqxAA5kZbEfonesQxRAA/1HJ2zd77fMqNu4b1nnApDCS/q9dQQgMrZ1T8ZiAbxCZ2r+1ll12Tf/Zbh1LgApjdO7LH8DWYrLAvhqnSO/Zc/fWtQnqLl1LgApbNRPrSMAERKXWfXTunXLf9ta1C3dqdapAKT0hB5hTg1kLS6z6jHa4KUqRS2da50JQBq/sw4ARMq2bmoMqvpjTZS09arvr+3m37TOBSClpzSEa7+BHHzsB+t96xB56qN5cq6s6t/6sXUmAGn82ToAEDFd3bORn1W/rxdVbelbOkvbWqcCkNLjWsx5aiAncVgAn6QaRd3Y/dA6E4CUNutu6whA5GzrnlAf6xB5uU81zlFLS30PrbHOBSCFvfUSZ6mBnEX9XPXH1WfUUgf3E+tMAFJ6VUtZ/AZy1tVNi/Ss+qWaRS1dojbWqQCkUKnp1hGASIp2Vb9Su6jbOJ6CBIRpmnUAIKKiXNULaxe1dLE6W+cCkMLr1gGAyIpuVX+UqqhbOt7WA4ToXesAQIR1ddPU2zpEPXxS86rvr1X6/fSydTYAtSxVe678BuotileAd041o5bK3HWp/wEAU/OtAwCRFsUF8E3p+vgAd551NgC1rLAOAERcVzc1Ygvgm9NPnK9SN+t0AGpYZR0AiLxu7ulIzaqbpy/qVu4m63QAalhpHQCIgWgtgLfNdCr6WPcD63wAABRclKq6XeZrxq7VjtYJAVTRyjoAEBPROVe9Xeaibu7uVCPrjAC2amkdAIiNbhG5r7pfXXdhDXS8rh4IR2vrAECMRKOq+6V+4El13/f/sM4JQBIPPAEK7SN/aODPJ5iTTVGv8wdolnVSAOqgL6hpoMA+8oP1gXWItNrpi2weQNbUPayu1lkBcHEnUARhL4APUpnL6kmh27kH1MI6LZB4e1gHAGKpm5uqXtYh0jhYyvaR3nu4u1VunRdIuCHWAYCY6u6eDnRW/W1lXdTSMe4fvKgDMFSmg60jALEV5gL47urtcihq6Ux3k7iSBbCyF1d8A0UU4gL4SZJyKmpplPsTVQ0YOd06ABBzoS2Al+u7knIsauki9zcWwAED5TrFOgIQe2EtgB+nrk7KuailUe5WNbBODyTOkdqW5Syg6Lq5qeppHWKLH275/1k88KS2e/2ZWmf9CYBEmaZDKWqgJMJ4BMpeeknOSfUsauklf7yWWH8KIDH213PUNFAyIVT14/rWlr2+niec93HPqZ/xhwCS43LrAECidHNPGS+AH7S1putd1FIv99KWC8cBFNe3dCTzaaCktnfPGF5WVq4bqvxVHpdwt3STdTUXlgFF1rjaLgugNCyvAL9Au1c5OK/nOer/ecqfpU+NPgqQBFdoDPNpwMSHfrAWlPyn9tYstShkUUvL/Q91d8k/CJAM+2q6GlHUgJHSv6+6oaZrv2r7fAGeXtLG/cvdrNYl/SBAMrTXZGoaMNTNTVWPkv7Ea2rUdEGKWpLOdW/phJJ+FCD+ynW7ulHTgKnt3TMlfAb4ubqw1j5fsOeBdnH3u8nqWrIPA8Sd03gdRU0D5rq7aSWq6mP0txR/t6AP7j7ZzdXlalqSjwPE3e/1fWoaCEL3kiyAH65JKk+x1xfgYrKaFvlLdZcqi/6RgPhyulKjqWkgIIv84KJeVnaS7lTjlHt9EV6F1d3d7uZoBG/ZAuqpgcZT00BgurunijarLtNlmpymposyo/7GG36cJmtz0f58IJ620R1VHh4IIBzFmVV30MSM16MUsagl6UN/vW7RqqL+DCBODtZd6kJNA4Fa5I/WWwX9E7+tG7Vdxn2+yEUtSav83bpFLxX95wBR11y/0cVqQE0DAVvlT9GjBfqzuug6nVznHl+Cov7am36iJmtRiX4aED0n6jp1p6SB4G30Y/X/tCnPP6WjLtEP1TSLfb5kRS1J3j+vSXqwxI9jA8J3pC7VIEoaiIxZ/ly9Wu//dQ+dr/PVPMt9vqRF/Y15/lE9rplaafCzgbA004m6UHtR0kDEeP9fXamXc/xfNdIRGqWjVJbDPm9S1F+r8LM1Q8/rDc3LewkBiJ5mGqTTdJJaUtJAZD3r79Z/tCSLf7OtButEHafWOe/xhkX9Pxv923pLH2ihFmiRPtdq60CSDtAn+ojHtqDgGqmX+mk3DdZ+ae+aBBAlFf4lvaAX9bo+0roa/2wb9VM/7a6DtHNOs+iqgijqmjb4ZVqqTVqlzdpscnNXGx3upA3+I63Qaq3jBjPkrbVaqIXaaLuUjwgEEA9f+E+1WdJatVY7tc36PHQm/x/iHNXgr7n6pgAAACV0RVh0ZGF0ZTpjcmVhdGUAMjAyMS0wMy0yNVQyMDowNzowOCswMDowMCbaWPkAAAAldEVYdGRhdGU6bW9kaWZ5ADIwMTYtMDQtMTZUMDc6NDA6MDgrMDA6MDC6zykLAAAAAElFTkSuQmCC;" parent="1" vertex="1">
          <mxGeometry x="780" y="308.06" width="50" height="46.94" as="geometry" />
        </mxCell>
        <mxCell id="t7QxfzS9N0kHJtA_tGLN-27" value="&lt;font style=&quot;font-size: 20px;&quot;&gt;Gym&lt;/font&gt;" style="text;html=1;align=center;verticalAlign=middle;resizable=0;points=[];autosize=1;strokeColor=none;fillColor=none;" parent="1" vertex="1">
          <mxGeometry x="115" y="580" width="70" height="40" as="geometry" />
        </mxCell>
        <mxCell id="-HdbqCJ2K1kRLV984Vfp-1" value="Freezer" style="rounded=0;whiteSpace=wrap;html=1;fillColor=#fff2cc;strokeColor=#d6b656;align=left;" parent="1" vertex="1">
          <mxGeometry x="50" y="430" width="940" height="60" as="geometry" />
        </mxCell>
        <mxCell id="t7QxfzS9N0kHJtA_tGLN-12" value="" style="endArrow=classic;html=1;rounded=0;exitX=0.5;exitY=0;exitDx=0;exitDy=0;exitPerimeter=0;entryX=0.393;entryY=-0.037;entryDx=0;entryDy=0;entryPerimeter=0;" parent="1" source="t7QxfzS9N0kHJtA_tGLN-9" target="t7QxfzS9N0kHJtA_tGLN-1" edge="1">
          <mxGeometry width="50" height="50" relative="1" as="geometry">
            <mxPoint x="540" y="360" as="sourcePoint" />
            <mxPoint x="220" y="240" as="targetPoint" />
            <Array as="points">
              <mxPoint x="1040" y="210" />
              <mxPoint x="220" y="210" />
            </Array>
          </mxGeometry>
        </mxCell>
        <mxCell id="t7QxfzS9N0kHJtA_tGLN-16" value="No" style="edgeLabel;html=1;align=center;verticalAlign=middle;resizable=0;points=[];" parent="t7QxfzS9N0kHJtA_tGLN-12" vertex="1" connectable="0">
          <mxGeometry x="-0.894" y="1" relative="1" as="geometry">
            <mxPoint x="-44" y="90" as="offset" />
          </mxGeometry>
        </mxCell>
        <mxCell id="t7QxfzS9N0kHJtA_tGLN-18" value="" style="endArrow=classic;html=1;rounded=0;" parent="1" target="t7QxfzS9N0kHJtA_tGLN-4" edge="1">
          <mxGeometry width="50" height="50" relative="1" as="geometry">
            <mxPoint x="505" y="210" as="sourcePoint" />
            <mxPoint x="600" y="310" as="targetPoint" />
          </mxGeometry>
        </mxCell>
        <mxCell id="t7QxfzS9N0kHJtA_tGLN-19" value="" style="endArrow=classic;html=1;rounded=0;entryX=0.5;entryY=0;entryDx=0;entryDy=0;entryPerimeter=0;" parent="1" target="t7QxfzS9N0kHJtA_tGLN-7" edge="1">
          <mxGeometry width="50" height="50" relative="1" as="geometry">
            <mxPoint x="795" y="210" as="sourcePoint" />
            <mxPoint x="794.5" y="290" as="targetPoint" />
          </mxGeometry>
        </mxCell>
        <mxCell id="t7QxfzS9N0kHJtA_tGLN-20" value="Improve inputs, and run again" style="text;html=1;align=center;verticalAlign=middle;resizable=0;points=[];autosize=1;strokeColor=none;fillColor=none;" parent="1" vertex="1">
          <mxGeometry x="530" y="180" width="180" height="30" as="geometry" />
        </mxCell>
      </root>
    </mxGraphModel>
  </diagram>
</mxfile>
